<?xml version="1.0" encoding="UTF-8"?>
<svg width="24px" height="22px" viewBox="0 0 24 22" version="1.1" xmlns="http://www.w3.org/2000/svg" xmlns:xlink="http://www.w3.org/1999/xlink">
    <!-- Generator: Sketch 50 (54983) - http://www.bohemiancoding.com/sketch -->
    <title>chat</title>
    <desc>Created with Sketch.</desc>
    <defs></defs>
    <g id="Desktop" stroke="none" stroke-width="1" fill="none" fill-rule="evenodd">
        <g id="Conference-Call-Page-Chat" transform="translate(-13.000000, -327.000000)" fill="#2E7EED" fill-rule="nonzero" stroke="#2E7EED" stroke-width="0.3">
            <g id="right-navigation" transform="translate(0.000000, 59.000000)">
                <g id="chat" transform="translate(14.000000, 269.000000)">
                    <path d="M13.2526946,0 C8.58922156,0 4.78203593,2.88439903 4.53612774,6.50616323 C1.81357285,7.37365167 0,9.46429878 0,11.7891678 C0.0519261477,13.501102 0.94493513,15.0807442 2.39321357,16.0225113 L2.39321357,19.6746376 C2.39321357,19.8543162 2.5406487,19.9999458 2.7225,20 C2.8055489,20 2.88557884,19.9689873 2.94650699,19.9131969 L5.76566866,17.362781 C6.25051397,17.4412344 6.74101297,17.4804341 7.23233533,17.4798919 C10.3061876,17.4798919 13.0111776,15.970462 14.0387226,13.7063172 C14.3812375,13.6802926 14.7237525,13.645593 15.0662675,13.5892063 L18.5265469,16.7165021 C18.6599301,16.8386553 18.8682934,16.8309021 18.9919611,16.6992065 C19.0484431,16.6390245 19.0798403,16.5600288 19.0798403,16.4779428 L19.0798403,11.9930276 C20.9373253,10.6917949 22,8.83103223 22,6.87050838 C21.9956088,3.08392137 18.0742515,0 13.2526946,0 Z M7.23233533,16.8292756 C6.7256986,16.829872 6.22010479,16.7848168 5.72175649,16.6948149 C5.62086826,16.6761639 5.51696108,16.7050078 5.44071856,16.7728888 L3.05628743,18.9416099 L3.05628743,15.8490136 C3.05606786,15.741174 3.00183633,15.6404911 2.91137725,15.5800922 C1.47105788,14.6215175 0.658682635,13.2248611 0.658682635,11.7848303 C0.658682635,9.80695672 2.19121756,8.00691822 4.51417166,7.19147909 C4.53673154,7.48425644 4.5851996,7.77453976 4.65908184,8.05896753 C4.98304391,9.37901383 5.72257984,10.5635693 6.77125749,11.4421724 C6.83273453,11.4985592 9.06347305,13.6672802 13.300998,13.7193295 C12.2778443,15.6061169 9.91536926,16.8292756 7.23233533,16.8292756 Z M18.5616766,11.5549459 C18.4712176,11.6153448 18.416986,11.7160277 18.4167665,11.8238673 L18.4167665,15.7275653 L15.3868263,12.9906393 C15.3258982,12.9348489 15.2459232,12.9038904 15.1628743,12.9038904 L15.1013972,12.9038904 C14.5220858,13.010212 13.9341567,13.0638878 13.3449102,13.0643758 C10.1568862,13.0643758 8.22914172,11.8412171 7.28502994,11.0561401 C6.3227495,10.2329478 5.62394212,9.15081015 5.2738523,7.94185659 C5.18871756,7.58499353 5.14453094,7.2197809 5.14211577,6.85315861 C5.16846307,3.44392907 8.79560878,0.646278881 13.2526946,0.646278881 C17.7097804,0.646278881 21.3369261,3.43525419 21.3369261,6.86617093 C21.3369261,8.66187199 20.3269461,10.3708242 18.5616766,11.5549459 Z" id="Shape"></path>
                </g>
            </g>
        </g>
    </g>
</svg>