<?xml version="1.0" encoding="UTF-8"?>
<svg width="18px" height="18px" viewBox="0 0 18 18" version="1.1" xmlns="http://www.w3.org/2000/svg" xmlns:xlink="http://www.w3.org/1999/xlink">
    <!-- Generator: Sketch 50 (54983) - http://www.bohemiancoding.com/sketch -->
    <title>clock</title>
    <desc>Created with Sketch.</desc>
    <defs></defs>
    <g id="Desktop" stroke="none" stroke-width="1" fill="none" fill-rule="evenodd">
        <g id="Conference-Call-Page" transform="translate(-16.000000, -220.000000)" fill="#A7A7A7" fill-rule="nonzero">
            <g id="right-navigation" transform="translate(0.000000, 59.000000)">
                <g id="clock" transform="translate(25.000000, 170.000000) rotate(-90.000000) translate(-25.000000, -170.000000) translate(16.000000, 161.000000)">
                    <path d="M17.2815294,5.49457545 C16.3325294,3.28086008 14.7198824,1.67088794 12.4889118,0.718865259 C11.3738529,0.243045201 10.2056471,0 8.98520588,0 C7.76497059,0 6.60538235,0.240749823 5.49155882,0.718865259 C3.27905882,1.66835714 1.65926471,3.2772993 0.708588235,5.49457545 C0.232205882,6.60542062 0,7.76920662 0,8.99011222 C0,10.2112532 0.232205882,11.3846916 0.708588235,12.4957722 C1.65926471,14.7130483 3.27926471,16.3316429 5.49155882,17.2813702 C6.60558824,17.7594856 7.76494118,18 8.98520588,18 C10.2054706,18 11.3738529,17.7569548 12.4887353,17.2813702 C14.7197059,16.3293181 16.3323529,14.7092816 17.2815588,12.4957722 C17.7593824,11.3811308 18,10.2112532 18,8.99011222 C18,7.76920662 17.7595882,6.6091874 17.2815294,5.49457545 Z M15.8448235,12.9684435 C15.1383235,14.1807267 14.1704412,15.1424606 12.9514412,15.8535274 C11.7398235,16.5604155 10.4122647,16.9169054 8.98541176,16.9169054 C7.91276471,16.9169054 6.88923529,16.7102036 5.91482353,16.2867064 C4.94044118,15.8634152 4.09914706,15.3069332 3.39538235,14.6029879 C2.69161765,13.8988366 2.13147059,13.04887 1.71261765,12.072275 C1.295,11.0992408 1.09261765,10.0635839 1.09261765,8.99014165 C1.09261765,7.56229891 1.44323529,6.24074982 2.14576471,5.03182139 C2.85079412,3.81847877 3.81888235,2.8557149 5.02926471,2.146708 C6.23944118,1.43773052 7.55838235,1.08312407 8.98520588,1.08312407 C10.4122647,1.08312407 11.7395882,1.4398199 12.9512353,2.146708 C14.1702353,2.85780428 15.1360294,3.82053873 15.8446176,5.03179196 C16.5532059,6.24283921 16.9074118,7.56229891 16.9074118,8.99011222 C16.9074118,10.4179844 16.5555294,11.7485384 15.8448235,12.9684435 Z" id="Shape"></path>
                    <path d="M9.10331758,8.44355736 L9.10331758,3.53107185 C9.10331758,3.23710893 8.83963364,3 8.53696754,3 C8.25390923,3 8,3.23710893 8,3.53107185 L8,8.51940047 C8,8.52892338 8.01957861,8.5669583 8.01957861,8.59530027 C8,8.76603231 8.04896112,8.90828066 8.1660243,9.02218704 L11.0853968,11.8576879 C11.2807453,12.0474374 11.6419138,12.0474374 11.8371164,11.8576879 C12.0616139,11.6395964 12.0468497,11.3231583 11.8371164,11.1179908 L9.10331758,8.44355736 Z" id="Shape"></path>
                </g>
            </g>
        </g>
    </g>
</svg>