<?xml version="1.0" encoding="UTF-8"?>
<svg width="15px" height="13px" viewBox="0 0 15 13" version="1.1" xmlns="http://www.w3.org/2000/svg" xmlns:xlink="http://www.w3.org/1999/xlink">
    <!-- Generator: Sketch 50 (54983) - http://www.bohemiancoding.com/sketch -->
    <title>desktop-monitor</title>
    <desc>Created with Sketch.</desc>
    <defs></defs>
    <g id="Desktop" stroke="none" stroke-width="1" fill="none" fill-rule="evenodd">
        <g id="Conference-Call-Page-Wellcome" transform="translate(-672.000000, -401.000000)" fill="#FFFFFF" fill-rule="nonzero">
            <g id="introducing" transform="translate(0.000000, 59.000000)">
                <g id="my-computer-button" transform="translate(655.000000, 329.000000)">
                    <g id="desktop-monitor" transform="translate(17.000000, 13.000000)">
                        <path d="M14.632698,0.367271679 C14.3879304,0.122505983 14.0937988,0 13.7499202,0 L1.24999772,0 C0.906255869,0 0.612069546,0.122505983 0.367137746,0.367271679 C0.122342764,0.612119464 0,0.906276114 0,1.25004262 L0,9.75002052 C0,10.0938691 0.122342764,10.3879984 0.367137746,10.6329009 C0.612069546,10.8776666 0.906255869,10.9999537 1.24999772,10.9999537 L5.5000611,10.9999537 C5.5000611,11.1978185 5.45835893,11.4011286 5.37500933,11.6093095 C5.29171446,11.8176545 5.20836486,11.9998674 5.12501526,12.1560577 C5.04177512,12.3124396 5.00010032,12.4268734 5.00010032,12.4997422 C5.00010032,12.6351363 5.04954639,12.7525801 5.14852062,12.8512799 C5.24744012,12.9503628 5.36463852,13 5.5000611,13 L9.50004832,13 C9.63547089,13 9.75269666,12.9503901 9.85161616,12.8512799 C9.95067248,12.7526074 10.0001185,12.6351637 10.0001185,12.4997422 C10.0001185,12.4322093 9.95836166,12.3188427 9.87503942,12.1600254 C9.79168982,12.0012903 9.70834022,11.8161768 9.62510008,11.6054512 C9.54175048,11.3944793 9.50007568,11.1926742 9.50007568,10.9999537 L13.7501391,10.9999537 C14.0938262,10.9999537 14.3879578,10.8776666 14.6327254,10.6329009 C14.8776025,10.3880258 15,10.0938965 15,9.75002052 L15,1.25004262 C15.000082,0.906276114 14.8775751,0.612119464 14.632698,0.367271679 Z M13.9999689,7.75000158 C13.9999689,7.81772602 13.9752596,7.87622899 13.9257862,7.92578412 C13.876258,7.97514771 13.8176451,7.99985687 13.7499202,7.99985687 L1.24999772,7.99985687 C1.18232747,7.99985687 1.12371459,7.97514771 1.07424116,7.92578412 C1.02479509,7.8760648 1.00003101,7.81772602 1.00003101,7.75000158 L1.00003101,1.25004262 C1.00003101,1.18231819 1.024713,1.12376049 1.07424116,1.07428745 C1.12374195,1.02489649 1.18235484,1.00007788 1.24999772,1.00007788 L13.7501117,1.00007788 C13.8177272,1.00007788 13.8764495,1.0248144 13.9257862,1.07428745 C13.9752596,1.12378785 13.9999689,1.18234555 13.9999689,1.25004262 L13.9999689,7.75000158 Z" id="Shape"></path>
                    </g>
                </g>
            </g>
        </g>
    </g>
</svg>