<?xml version="1.0" encoding="UTF-8"?>
<svg width="30px" height="30px" viewBox="0 0 30 30" version="1.1" xmlns="http://www.w3.org/2000/svg" xmlns:xlink="http://www.w3.org/1999/xlink">
    <!-- Generator: Sketch 50 (54983) - http://www.bohemiancoding.com/sketch -->
    <title>invite user</title>
    <desc>Created with Sketch.</desc>
    <defs></defs>
    <g id="Desktop" stroke="none" stroke-width="1" fill="none" fill-rule="evenodd">
        <g id="Conference-Call-Page" transform="translate(-604.000000, -15.000000)">
            <g id="header-conference">
                <g id="actions" transform="translate(454.000000, 15.000000)">
                    <g id="invite-user" transform="translate(150.000000, 0.000000)">
                        <circle id="Oval-Copy-2" fill="#96BEF6" cx="15" cy="15" r="15"></circle>
                        <g id="user" transform="translate(9.000000, 8.000000)" fill="#2E7EED" fill-rule="nonzero">
                            <circle id="Oval" cx="4.5" cy="2.5" r="2.5"></circle>
                            <path d="M11,7 C8.79438801,7 7,8.79439704 7,10.9999799 C7,13.2055627 8.79438801,15 11,15 C13.205612,15 15,13.205603 15,10.9999799 C15,8.79435681 13.205612,7 11,7 Z M13.4741024,11.6034225 L11.6034396,11.6034225 L11.6034396,13.4740947 L10.3965604,13.4740947 L10.3965604,11.6034225 L8.52589762,11.6034225 L8.52589762,10.3965372 L10.3965604,10.3965372 L10.3965604,8.52586506 L11.6034396,8.52586506 L11.6034396,10.3965372 L13.4741024,10.3965372 L13.4741024,11.6034225 Z" id="Shape"></path>
                            <path d="M4.91714331,6 C2.20147853,6 0,8.23857471 0,11 L6.56907739,11 C6.56907739,9.512 7.10899102,8.14983908 8,7.10533333 C7.15669297,6.41416092 6.08464269,6 4.91714331,6 Z" id="Shape"></path>
                        </g>
                    </g>
                </g>
            </g>
        </g>
    </g>
</svg>