<?xml version="1.0" encoding="UTF-8"?>
<svg width="30px" height="30px" viewBox="0 0 30 30" version="1.1" xmlns="http://www.w3.org/2000/svg" xmlns:xlink="http://www.w3.org/1999/xlink">
    <!-- Generator: Sketch 50 (54983) - http://www.bohemiancoding.com/sketch -->
    <title>leave</title>
    <desc>Created with Sketch.</desc>
    <defs></defs>
    <g id="Desktop" stroke="none" stroke-width="1" fill="none" fill-rule="evenodd">
        <g id="Conference-Call-Page" transform="translate(-799.000000, -15.000000)">
            <g id="header-conference">
                <g id="actions" transform="translate(454.000000, 15.000000)">
                    <g id="leave" transform="translate(345.000000, 0.000000)">
                        <circle id="Oval-Copy-6" fill="#D54747" cx="15" cy="15" r="15"></circle>
                        <g id="cross" transform="translate(10.000000, 10.000000)" fill="#FFFFFF" fill-rule="nonzero">
                            <path d="M5.89195652,5 L9.93463243,0.957588016 C10.0216487,0.870467522 10.0216487,0.729304932 9.93463243,0.642184438 L9.35807047,0.0653140341 C9.31624787,0.0235973284 9.2593607,0 9.20026126,0 C9.14105647,0 9.08427465,0.0235973284 9.04245205,0.0653140341 L4.99988149,4.10783136 L0.957310923,0.0653140341 C0.873560373,-0.0184354128 0.725337702,-0.0183300676 0.641797845,0.0653140341 L0.0653412308,0.642184438 C-0.0217804103,0.729304932 -0.0217804103,0.870467522 0.0653412308,0.957588016 L4.10791179,5 L0.0653412308,9.04241198 C-0.0217804103,9.12953248 -0.0217804103,9.27069507 0.0653412308,9.35781556 L0.641903192,9.93468597 C0.683725793,9.97640267 0.740507613,10 0.799712404,10 C0.858917195,10 0.915593668,9.97640267 0.957416269,9.93468597 L4.99998683,5.89216864 L9.04255739,9.93468597 C9.08438,9.97640267 9.14126716,10 9.20036661,10 C9.25946605,10 9.31635322,9.97640267 9.35817582,9.93468597 L9.93473778,9.35781556 C10.0217541,9.27069507 10.0217541,9.12953248 9.93473778,9.04241198 L5.89195652,5 Z" id="Shape"></path>
                        </g>
                    </g>
                </g>
            </g>
        </g>
    </g>
</svg>