<?xml version="1.0" encoding="UTF-8"?>
<svg width="30px" height="30px" viewBox="0 0 30 30" version="1.1" xmlns="http://www.w3.org/2000/svg" xmlns:xlink="http://www.w3.org/1999/xlink">
    <!-- Generator: Sketch 50 (54983) - http://www.bohemiancoding.com/sketch -->
    <title>lock</title>
    <desc>Created with Sketch.</desc>
    <defs></defs>
    <g id="Desktop" stroke="none" stroke-width="1" fill="none" fill-rule="evenodd">
        <g id="Conference-Call-Page" transform="translate(-754.000000, -15.000000)">
            <g id="header-conference">
                <g id="actions" transform="translate(454.000000, 15.000000)">
                    <g id="lock" transform="translate(300.000000, 0.000000)">
                        <circle id="Oval-Copy-5" fill="#96BEF6" cx="15" cy="15" r="15"></circle>
                        <g id="padlock" transform="translate(9.000000, 8.000000)" fill="#2E7EED" fill-rule="nonzero">
                            <path d="M11.708084,6.64205792 C11.5135829,6.45643511 11.2775619,6.36369335 10.9996563,6.36369335 L10.6665125,6.36369335 L10.6665125,4.4544948 C10.6665125,3.23481709 10.2082984,2.18756312 9.29157824,1.31255877 C8.3749311,0.43751959 7.2779025,0 5.99994519,0 C4.72202436,0 3.62477686,0.43751959 2.70820269,1.31252394 C1.79148257,2.18756312 1.33326845,3.23478226 1.33326845,4.4544948 L1.33326845,6.36369335 L0.999978704,6.36369335 C0.722291973,6.36369335 0.486125082,6.45643511 0.291660455,6.64205792 C0.0971958284,6.82754143 0,7.05297041 0,7.31827522 L0,13.0454878 C0,13.3105488 0.0972323134,13.5360474 0.291660455,13.7217051 C0.486125082,13.9071538 0.722291973,14 0.999978704,14 L10.9999117,14 C11.2778173,14 11.5138018,13.9072582 11.7083394,13.7217051 C11.9026216,13.5360474 11.9999998,13.3105488 11.9999998,13.0454878 L11.9999998,7.31817074 C12.0001458,7.05307489 11.9026216,6.82768073 11.708084,6.64205792 Z M8.66659155,6.36369335 L3.33329883,6.36369335 L3.33329883,4.4544948 C3.33329883,3.75187936 3.59376468,3.1519311 4.11458692,2.65485898 C4.63548213,2.1577172 5.2638984,1.90919855 6.00005465,1.90919855 C6.73628386,1.90919855 7.36455419,2.15768238 7.88548589,2.65485898 C8.40616219,3.15189628 8.66659155,3.75187936 8.66659155,4.4544948 L8.66659155,6.36369335 Z" id="Shape"></path>
                        </g>
                    </g>
                </g>
            </g>
        </g>
    </g>
</svg>