<?xml version="1.0" encoding="UTF-8"?>
<svg width="14px" height="21px" viewBox="0 0 14 21" version="1.1" xmlns="http://www.w3.org/2000/svg" xmlns:xlink="http://www.w3.org/1999/xlink">
    <!-- Generator: Sketch 50 (54983) - http://www.bohemiancoding.com/sketch -->
    <title>microphone icon</title>
    <desc>Created with Sketch.</desc>
    <defs></defs>
    <g id="Desktop" stroke="none" stroke-width="1" fill="none" fill-rule="evenodd">
        <g id="Conference-Call-Page-Audio-Setting" transform="translate(-460.000000, -385.000000)" fill="#2E7EED" fill-rule="nonzero">
            <g id="pop-up" transform="translate(420.000000, 261.000000)">
                <g id="microphone" transform="translate(26.000000, 90.000000)">
                    <g id="mic-selection-field" transform="translate(0.000000, 27.000000)">
                        <g id="microphone-icon" transform="translate(14.000000, 7.000000)">
                            <path d="M6.39067998,14.1660913 C7.48938411,14.1660913 8.42963139,13.789457 9.21190279,13.0365251 C9.99404301,12.2835932 10.3851568,11.3777931 10.3851568,10.3199667 L10.3851568,4.16578848 C10.3851568,3.10796213 9.99434908,2.20254091 9.21190279,1.44923012 C8.42963139,0.696087734 7.48938411,0.319242885 6.39067998,0.319242885 C5.29210702,0.319242885 4.35172856,0.696087734 3.56941344,1.44923012 C2.7870546,2.20241461 2.39594076,3.10796213 2.39594076,4.16578848 L2.39594076,10.3199667 C2.39594076,11.377751 2.7872295,12.2835932 3.56941344,13.0365251 C4.35159739,13.789457 5.29210702,14.1660913 6.39067998,14.1660913 Z" id="Shape"></path>
                            <path d="M12.8892782,9.1244555 C12.7455929,8.98568305 12.5745732,8.91627765 12.3773745,8.91627765 C12.1803751,8.91627765 12.0097538,8.98568305 11.8654708,9.1244555 C11.7215066,9.26318957 11.6494647,9.42747589 11.6494647,9.61727607 L11.6494647,11.0194648 C11.6494647,12.3705106 11.1506704,13.526078 10.1533209,14.4863587 C9.15629018,15.4466778 7.95600414,15.9268374 6.55282143,15.9268374 C5.14967856,15.9268374 3.94951206,15.4466778 2.9521227,14.4863587 C1.95485287,13.5263465 1.4562578,12.370549 1.4562578,11.0194648 L1.4562578,9.61727607 C1.4562578,9.42747589 1.38417609,9.26318957 1.2401322,9.1244555 C1.09600862,8.98568305 0.925546728,8.91627765 0.728228518,8.91627765 C0.530910307,8.91627765 0.360249181,8.98568305 0.216205293,9.1244555 C0.0720418669,9.26318957 0,9.42747589 0,9.61727607 L0,11.0194648 C0,12.633361 0.559440161,14.0373529 1.67800171,15.2312103 C2.79660311,16.4251061 4.17882674,17.1096835 5.82471245,17.2848276 L5.82471245,18.7309078 L2.91239607,18.7309078 C2.7151974,18.7309078 2.54457612,18.80039 2.40049238,18.9391624 C2.2563688,19.0778198 2.18428709,19.2421828 2.18428709,19.4320597 C2.18428709,19.6216297 2.2563688,19.7862997 2.40049238,19.924957 C2.54457612,20.0636144 2.7151974,20.1332116 2.91239607,20.1332116 L10.1930476,20.1332116 C10.3902064,20.1332116 10.5610667,20.0636527 10.7049512,19.924957 C10.8492342,19.7863381 10.9213558,19.6216681 10.9213558,19.4320597 C10.9213558,19.2422212 10.8492342,19.0778581 10.7049512,18.9391624 C10.5611066,18.80039 10.3902462,18.7309078 10.1930476,18.7309078 L7.28108979,18.7309078 L7.28108979,17.2848276 C8.92669657,17.1096835 10.3088007,16.4251061 11.4275216,15.2312103 C12.5462425,14.0373529 13.1058421,12.633361 13.1058421,11.0194648 L13.1058421,9.61727607 C13.1058421,9.42751425 13.033601,9.26334304 12.8892782,9.1244555 Z" id="Shape"></path>
                        </g>
                    </g>
                </g>
            </g>
        </g>
    </g>
</svg>