<?xml version="1.0" encoding="UTF-8"?>
<svg width="30px" height="30px" viewBox="0 0 30 30" version="1.1" xmlns="http://www.w3.org/2000/svg" xmlns:xlink="http://www.w3.org/1999/xlink">
    <!-- Generator: Sketch 50 (54983) - http://www.bohemiancoding.com/sketch -->
    <title>mute</title>
    <desc>Created with Sketch.</desc>
    <defs></defs>
    <g id="Desktop" stroke="none" stroke-width="1" fill="none" fill-rule="evenodd">
        <g id="Conference-Call-Page" transform="translate(-704.000000, -15.000000)">
            <g id="header-conference">
                <g id="actions" transform="translate(454.000000, 15.000000)">
                    <g id="mute" transform="translate(250.000000, 0.000000)">
                        <circle id="Oval-Copy-4" fill="#96BEF6" cx="15" cy="15" r="15"></circle>
                        <g id="muted" transform="translate(9.000000, 7.000000)" fill="#2E7EED" fill-rule="nonzero">
                            <path d="M6.2974301,12 C7.78752887,12 9,10.6498476 9,8.9905417 L9,5 L4,10.5677714 C4.47688074,11.4254671 5.32696182,12 6.2974301,12 Z" id="Shape"></path>
                            <path d="M9,2.62013934 C9,1.17548979 7.65409091,0 6,0 C4.34590909,0 3,1.17548979 3,2.62013934 L3,8 L9,2.75972131 L9,2.62013934 Z" id="Shape"></path>
                            <path d="M12.9188892,1.07602743 C12.8107414,0.974657525 12.6359347,0.974657525 12.5277869,1.07602743 L2.92891033,10.0733191 C2.82408166,9.74457989 2.76599717,9.39717409 2.76599717,9.03706464 L2.76599717,7.48151629 C2.76599717,7.33814658 2.64208359,7.22225823 2.48940437,7.22225823 C2.33672514,7.22225823 2.21281157,7.33814658 2.21281157,7.48151629 L2.21281157,9.03706464 C2.21281157,9.54521044 2.3154275,10.030023 2.49465963,10.4803543 L0.0811108392,12.7426401 C-0.0270369464,12.84401 -0.0270369464,13.0078611 0.0811108392,13.109231 C0.135046436,13.1597863 0.205854193,13.1851936 0.27666195,13.1851936 C0.347469708,13.1851936 0.418277465,13.1597863 0.472213062,13.109231 L2.73501878,10.9882408 C3.43977724,12.2220499 4.79120967,13.0804533 6.3617036,13.1722307 L6.3617036,14.4814839 L4.97873959,14.4814839 C4.82606036,14.4814839 4.70214679,14.5973722 4.70214679,14.7407419 C4.70214679,14.8841116 4.82606036,15 4.97873959,15 L8.29785321,15 C8.45053244,15 8.57444602,14.8841116 8.57444602,14.7407419 C8.57444602,14.5973722 8.45053244,14.4814839 8.29785321,14.4814839 L6.9148892,14.4814839 L6.9148892,13.1719714 C9.22609866,13.0371572 11.0637812,11.23661 11.0637812,9.03706464 L11.0637812,7.48151629 C11.0637812,7.33814658 10.9398677,7.22225823 10.7871884,7.22225823 C10.6345092,7.22225823 10.5105956,7.33814658 10.5105956,7.48151629 L10.5105956,9.03706464 C10.5105956,11.0385369 8.77359283,12.6666775 6.6382964,12.6666775 C5.10071701,12.6666775 3.77362475,11.8201999 3.14880161,10.6003907 L12.9188892,1.44261832 C13.0270369,1.34124842 13.0270369,1.17739733 12.9188892,1.07602743 Z" id="Shape"></path>
                        </g>
                    </g>
                </g>
            </g>
        </g>
    </g>
</svg>