<?xml version="1.0" encoding="UTF-8"?>
<svg width="14px" height="14px" viewBox="0 0 14 14" version="1.1" xmlns="http://www.w3.org/2000/svg" xmlns:xlink="http://www.w3.org/1999/xlink">
    <!-- Generator: Sketch 50 (54983) - http://www.bohemiancoding.com/sketch -->
    <title>phone-receiver</title>
    <desc>Created with Sketch.</desc>
    <defs></defs>
    <g id="Desktop" stroke="none" stroke-width="1" fill="none" fill-rule="evenodd">
        <g id="Conference-Call-Page-Wellcome" transform="translate(-504.000000, -400.000000)" fill="#FFFFFF" fill-rule="nonzero">
            <g id="introducing" transform="translate(0.000000, 59.000000)">
                <g id="my-phone-button" transform="translate(480.000000, 329.000000)">
                    <g id="phone-receiver" transform="translate(24.000000, 12.000000)">
                        <path d="M13.9933269,11.0487097 C14.0229928,11.2761347 13.9537321,11.4738744 13.7858354,11.641929 L11.814666,13.59948 C11.725741,13.6983499 11.6096688,13.782462 11.4664008,13.8515982 C11.3231329,13.9208314 11.1823593,13.9653228 11.04408,13.9850726 C11.0341995,13.9850726 11.0044852,13.987617 10.9550582,13.9925605 C10.9057281,13.9974798 10.8415046,14 10.7624602,14 C10.5746813,14 10.2708302,13.9678673 9.85090693,13.9035776 C9.43098362,13.839288 8.91721931,13.6810719 8.30961401,13.4290022 C7.7018634,13.176884 7.01271935,12.7986582 6.24206078,12.2944702 C5.47140221,11.7903065 4.65129246,11.0981689 3.78180419,10.2182027 C3.09016578,9.53600044 2.51709397,8.8834592 2.06258873,8.26060315 C1.6080835,7.63769864 1.2425032,7.06178156 0.965847841,6.53282768 C0.689168263,6.00387379 0.481676743,5.52435484 0.343349063,5.09427084 C0.205021383,4.66418684 0.111156172,4.29342477 0.0617534286,3.98198463 C0.0123506857,3.67054449 -0.00741041143,3.42584153 0.00247013714,3.24787573 C0.0123506857,3.06990994 0.01729096,2.97104006 0.01729096,2.95126608 C0.0370520572,2.81284824 0.0815145258,2.67195865 0.150678366,2.52859732 C0.219842206,2.38523598 0.303826869,2.26906387 0.402632355,2.18008097 L2.3738018,0.207626759 C2.51212948,0.0692089198 2.67021825,0 2.84806813,0 C2.97651526,0 3.09014157,0.037076207 3.18894705,0.111228621 C3.28775254,0.185381035 3.3717372,0.276835679 3.44090104,0.385592553 L5.02672909,3.39618056 C5.11565403,3.55437238 5.1403554,3.72739468 5.1008332,3.91524746 C5.06131101,4.10310024 4.97732635,4.26129206 4.84887921,4.38982291 L4.12265889,5.11651657 C4.1028978,5.13629054 4.08560684,5.16842326 4.07078601,5.21291471 C4.05596519,5.25740615 4.04855478,5.29448236 4.04855478,5.32414333 C4.08807697,5.53177009 4.17700191,5.76905781 4.31532959,6.0360065 C4.43389617,6.27329423 4.61668632,6.56248864 4.86370004,6.90358975 C5.11071375,7.24469085 5.46147323,7.63767441 5.91597846,8.0825889 C6.36060315,8.53743883 6.75582509,8.89085021 7.10164429,9.14301688 C7.44739084,9.39503816 7.73649375,9.58049189 7.96868665,9.69913575 C8.20087954,9.81777962 8.37872941,9.88946028 8.50221205,9.91410506 L8.6874239,9.9512055 C8.707185,9.9512055 8.73936943,9.94376602 8.78378347,9.92895977 C8.82824594,9.91410506 8.86035772,9.89682706 8.88014303,9.87702885 L9.72490572,9.01686085 C9.90285246,8.85869326 10.1102471,8.77959735 10.3474045,8.77959735 C10.5154223,8.77959735 10.648737,8.80923409 10.7475425,8.86858025 L10.7623391,8.86858025 L13.6227337,10.5592553 C13.8302979,10.6878831 13.9537805,10.8509699 13.9933269,11.0487097 Z" id="Shape"></path>
                    </g>
                </g>
            </g>
        </g>
    </g>
</svg>