<?xml version="1.0" encoding="UTF-8"?>
<svg width="12px" height="18px" viewBox="0 0 12 18" version="1.1" xmlns="http://www.w3.org/2000/svg" xmlns:xlink="http://www.w3.org/1999/xlink">
    <!-- Generator: Sketch 50 (54983) - http://www.bohemiancoding.com/sketch -->
    <title>Group</title>
    <desc>Created with Sketch.</desc>
    <defs></defs>
    <g id="Desktop" stroke="none" stroke-width="1" fill="none" fill-rule="evenodd">
        <g id="Conference-Call-Page-Join-By-Phone" transform="translate(-673.000000, -232.000000)">
            <g id="pop-up" transform="translate(420.000000, 112.000000)">
                <g id="pin" transform="translate(250.000000, 120.000000)">
                    <g id="Dialpad,-Number,-Mobile,-Touch,-Button">
                        <g id="Group">
                            <polygon id="Shape" points="0 0 18 0 18 18 0 18"></polygon>
                            <path d="M9,14.25 C8.17125,14.25 7.5,14.92125 7.5,15.75 C7.5,16.57875 8.17125,17.25 9,17.25 C9.82875,17.25 10.5,16.57875 10.5,15.75 C10.5,14.92125 9.82875,14.25 9,14.25 Z M4.5,0.75 C3.67125,0.75 3,1.42125 3,2.25 C3,3.07875 3.67125,3.75 4.5,3.75 C5.32875,3.75 6,3.07875 6,2.25 C6,1.42125 5.32875,0.75 4.5,0.75 Z M4.5,5.25 C3.67125,5.25 3,5.92125 3,6.75 C3,7.57875 3.67125,8.25 4.5,8.25 C5.32875,8.25 6,7.57875 6,6.75 C6,5.92125 5.32875,5.25 4.5,5.25 Z M4.5,9.75 C3.67125,9.75 3,10.42125 3,11.25 C3,12.07875 3.67125,12.75 4.5,12.75 C5.32875,12.75 6,12.07875 6,11.25 C6,10.42125 5.32875,9.75 4.5,9.75 Z M13.5,3.75 C14.32875,3.75 15,3.07875 15,2.25 C15,1.42125 14.32875,0.75 13.5,0.75 C12.67125,0.75 12,1.42125 12,2.25 C12,3.07875 12.67125,3.75 13.5,3.75 Z M9,9.75 C8.17125,9.75 7.5,10.42125 7.5,11.25 C7.5,12.07875 8.17125,12.75 9,12.75 C9.82875,12.75 10.5,12.07875 10.5,11.25 C10.5,10.42125 9.82875,9.75 9,9.75 Z M13.5,9.75 C12.67125,9.75 12,10.42125 12,11.25 C12,12.07875 12.67125,12.75 13.5,12.75 C14.32875,12.75 15,12.07875 15,11.25 C15,10.42125 14.32875,9.75 13.5,9.75 Z M13.5,5.25 C12.67125,5.25 12,5.92125 12,6.75 C12,7.57875 12.67125,8.25 13.5,8.25 C14.32875,8.25 15,7.57875 15,6.75 C15,5.92125 14.32875,5.25 13.5,5.25 Z M9,5.25 C8.17125,5.25 7.5,5.92125 7.5,6.75 C7.5,7.57875 8.17125,8.25 9,8.25 C9.82875,8.25 10.5,7.57875 10.5,6.75 C10.5,5.92125 9.82875,5.25 9,5.25 Z M9,0.75 C8.17125,0.75 7.5,1.42125 7.5,2.25 C7.5,3.07875 8.17125,3.75 9,3.75 C9.82875,3.75 10.5,3.07875 10.5,2.25 C10.5,1.42125 9.82875,0.75 9,0.75 Z" id="Shape" fill="#2E7EED" fill-rule="nonzero"></path>
                        </g>
                    </g>
                </g>
            </g>
        </g>
    </g>
</svg>