<?xml version="1.0" encoding="UTF-8"?>
<svg width="20px" height="20px" viewBox="0 0 20 20" version="1.1" xmlns="http://www.w3.org/2000/svg" xmlns:xlink="http://www.w3.org/1999/xlink">
    <!-- Generator: Sketch 50 (54983) - http://www.bohemiancoding.com/sketch -->
    <title>questions-circular-button</title>
    <desc>Created with Sketch.</desc>
    <defs></defs>
    <g id="Desktop" stroke="none" stroke-width="1" fill="none" fill-rule="evenodd">
        <g id="Conference-Call-Page" transform="translate(-15.000000, -378.000000)" fill="#A7A7A7" fill-rule="nonzero">
            <g id="right-navigation" transform="translate(0.000000, 59.000000)">
                <g id="questions-circular-button" transform="translate(15.000000, 319.000000)">
                    <path d="M7.5,6 C7.26626294,6.23484023 7.11418246,6.38634713 7,6.5 C7.21195546,6.28785403 7.5,6 7.5,6 Z" id="Shape"></path>
                    <path d="M11.3325109,6.43261365 C11.5954177,6.73457358 11.7259459,7.09059151 11.7259459,7.50063657 C11.7259459,7.79402371 11.6358319,8.0762477 11.4565953,8.34903545 C11.35822,8.50343837 11.2286501,8.65272228 11.0668282,8.79509861 L10.5281599,9.29179681 C10.0115327,9.76533611 9.67784326,10.1847866 9.52524095,10.5519676 C9.37263865,10.9182544 9.2963375,11.40123 9.2963375,12 L10.4950487,12 C10.4950487,11.4724336 10.5593876,11.0735208 10.687173,10.8032926 C10.8149254,10.5330643 11.0943878,10.2036899 11.5255273,9.81334996 C12.1184226,9.27717987 12.5118907,8.8705886 12.7067577,8.59434706 C12.9016247,8.31810553 13,7.95783204 13,7.51346494 C13,6.78089138 12.7343504,6.17866756 12.2020929,5.70685516 C11.6698684,5.23504275 10.9620422,5 10.077689,5 C9.12166107,5 8.36971967,5.27534725 7.8218318,5.82610343 C7.27394393,6.37685961 7,7.10428332 7,8.00929968 L8.19871124,8.00929968 C8.22075233,7.4645568 8.31364212,7.04766583 8.4745057,6.75856509 C8.76130418,6.23957145 9.2797819,5.9796429 10.0298728,5.9796429 C10.6356887,5.97967374 11.0704962,6.13065371 11.3325109,6.43261365 Z" id="Shape"></path>
                    <path d="M20,10 C20,4.4772549 15.5227124,0 10,0 C4.4772549,0 0,4.4772549 0,10 C0,15.5227124 4.4772549,20 10,20 C15.5227124,20 20,15.5227124 20,10 Z M0.909084967,10 C0.909084967,4.97908497 4.97908497,0.909084967 10,0.909084967 C15.020915,0.909084967 19.090915,4.97908497 19.090915,10 C19.090915,15.020915 15.020915,19.090915 10,19.090915 C4.97908497,19.090915 0.909084967,15.020915 0.909084967,10 Z" id="Shape"></path>
                    <rect id="Rectangle-path" x="9" y="14" width="1" height="1"></rect>
                </g>
            </g>
        </g>
    </g>
</svg>