<?xml version="1.0" encoding="UTF-8"?>
<svg width="30px" height="30px" viewBox="0 0 30 30" version="1.1" xmlns="http://www.w3.org/2000/svg" xmlns:xlink="http://www.w3.org/1999/xlink">
    <!-- Generator: Sketch 50 (54983) - http://www.bohemiancoding.com/sketch -->
    <title>record</title>
    <desc>Created with Sketch.</desc>
    <defs></defs>
    <g id="Desktop" stroke="none" stroke-width="1" fill="none" fill-rule="evenodd">
        <g id="Conference-Call-Page" transform="translate(-654.000000, -15.000000)">
            <g id="header-conference">
                <g id="actions" transform="translate(454.000000, 15.000000)">
                    <g id="record" transform="translate(200.000000, 0.000000)">
                        <circle id="Oval-Copy-3" fill="#96BEF6" cx="15" cy="15" r="15"></circle>
                        <g id="microphone" transform="translate(11.000000, 7.000000)" fill="#2E7EED" fill-rule="nonzero">
                            <path d="M8.71875,8 C8.5635,8 8.4375,8.1192 8.4375,8.26666667 L8.4375,9.86666667 C8.4375,11.9253333 6.67125,13.6 4.5,13.6 C2.32875,13.6 0.5625,11.9253333 0.5625,9.86666667 L0.5625,8.26666667 C0.5625,8.1192 0.4365,8 0.28125,8 C0.126,8 0,8.1192 0,8.26666667 L0,9.86666667 C0,12.1293333 1.868625,13.9810667 4.21875,14.1197333 L4.21875,15.4666667 L2.8125,15.4666667 C2.65725,15.4666667 2.53125,15.5858667 2.53125,15.7333333 C2.53125,15.8808 2.65725,16 2.8125,16 L6.1875,16 C6.34275,16 6.46875,15.8808 6.46875,15.7333333 C6.46875,15.5858667 6.34275,15.4666667 6.1875,15.4666667 L4.78125,15.4666667 L4.78125,14.1197333 C7.131375,13.9810667 9,12.1290667 9,9.86666667 L9,8.26666667 C9,8.1192 8.874,8 8.71875,8 Z" id="Shape"></path>
                            <path d="M4,13 C5.65409091,13 7,11.6053261 7,9.89130435 L7,3.10869565 C7,1.39467391 5.65409091,0 4,0 C2.34590909,0 1,1.39467391 1,3.10869565 L1,9.89130435 C1,11.6053261 2.34590909,13 4,13 Z" id="Shape"></path>
                        </g>
                    </g>
                </g>
            </g>
        </g>
    </g>
</svg>