<?xml version="1.0" encoding="UTF-8"?>
<svg width="19px" height="16px" viewBox="0 0 19 16" version="1.1" xmlns="http://www.w3.org/2000/svg" xmlns:xlink="http://www.w3.org/1999/xlink">
    <!-- Generator: Sketch 50 (54983) - http://www.bohemiancoding.com/sketch -->
    <title>speaker</title>
    <desc>Created with Sketch.</desc>
    <defs></defs>
    <g id="Desktop" stroke="none" stroke-width="1" fill="none" fill-rule="evenodd">
        <g id="Conference-Call-Page-Audio-Setting" transform="translate(-459.000000, -467.000000)" fill="#2E7EED" fill-rule="nonzero">
            <g id="pop-up" transform="translate(420.000000, 261.000000)">
                <g id="speaker" transform="translate(26.000000, 172.000000)">
                    <g id="field" transform="translate(0.000000, 24.000000)">
                        <g id="speaker" transform="translate(13.000000, 10.000000)">
                            <path d="M8.25002394,1 C8.04701488,1 7.87121872,1.07306851 7.72271755,1.2188023 L3.82039577,5.05268145 L0.750140237,5.05268145 C0.546884905,5.05268145 0.371129789,5.12574997 0.22271071,5.2714031 C0.0742505849,5.41721753 0,5.59000925 0,5.78953629 L0,10.2103427 C0,10.4099101 0.0742505849,10.5826615 0.22271071,10.7284356 C0.371252924,10.8742904 0.547049085,10.9472782 0.750140237,10.9472782 L3.82023159,10.9472782 L7.72255337,14.7812784 C7.87101349,14.9268508 8.04680966,15 8.24985976,15 C8.4531151,15 8.62887021,14.9268912 8.77728929,14.7812784 C8.92574942,14.6355446 9,14.4626722 9,14.2632258 L9,1.73697581 C9,1.53744877 8.92574942,1.36461673 8.77745347,1.2188023 C8.62891126,1.07306851 8.45327928,1 8.25002394,1 Z" id="Shape"></path>
                            <path d="M12.4774577,8.97377061 C12.8259484,8.51896979 13,8.02783453 13,7.50014592 C13,6.97245732 12.8259484,6.4789873 12.4774577,6.02064789 C12.1289239,5.56238144 11.668303,5.23960309 11.0943031,5.05205749 C11.0124015,5.01743762 10.9098308,5 10.7868923,5 C10.5739999,5 10.3893554,5.06427842 10.2336907,5.19268933 C10.0782414,5.32113673 10,5.47913323 10,5.66656939 C10,5.81238144 10.0492184,5.93564862 10.1477845,6.03637093 C10.2460922,6.13712972 10.3648538,6.22395301 10.5044137,6.29680432 C10.6435,6.36969211 10.7829307,6.44958412 10.9224476,6.53637093 C11.0618783,6.62319422 11.1806399,6.74642492 11.2789045,6.90609952 C11.3769108,7.06588355 11.4264307,7.2637531 11.4264307,7.49989056 C11.4264307,7.73595506 11.3772122,7.93386108 11.2789045,8.09364512 C11.1806399,8.25346564 11.0618783,8.37655042 10.9224476,8.46355611 C10.7829307,8.55034292 10.6435,8.63023493 10.5044137,8.70312272 C10.3648538,8.77579162 10.2460922,8.86279732 10.1477845,8.96330074 C10.0495199,9.06416898 10,9.18739968 10,9.33321173 C10,9.52086677 10.0781983,9.67868087 10.2336907,9.80709178 C10.3893123,9.93553918 10.5739569,10 10.7868923,10 C10.9097877,10 11.0123584,9.9825259 11.0943031,9.94805195 C11.668303,9.75328323 12.1290962,9.42857143 12.4774577,8.97377061 Z" id="Shape"></path>
                            <path d="M14.9373336,11.7640473 C15.6456903,10.7666484 16,9.67863936 16,8.5000607 C16,7.32144158 15.6456465,6.23359442 14.9373336,5.23558844 C14.2291083,4.23822996 13.2912143,3.51229706 12.1248774,3.05774926 C12.0166976,3.01930371 11.9082551,3 11.8002066,3 C11.5835843,3 11.3958567,3.07320842 11.2374615,3.21958479 C11.0792852,3.36592069 11,3.53920894 11,3.73949002 C11,4.03993186 11.1625543,4.26716529 11.4876629,4.42135218 C11.9542239,4.64466012 12.2707954,4.81410381 12.4373774,4.92960234 C13.0541906,5.34562365 13.5352427,5.86739045 13.8810591,6.49518603 C14.2268317,7.12302208 14.3997618,7.79124619 14.3997618,8.49989883 C14.3997618,9.20859194 14.2268755,9.87677558 13.8810591,10.5045712 C13.5352865,11.1324881 13.0538841,11.654174 12.4373774,12.0700739 C12.2707516,12.1856938 11.9542239,12.3550971 11.4876629,12.5784859 C11.1625543,12.7326324 11,12.9598658 11,13.2602672 C11,13.4605078 11.0792852,13.6340388 11.2374615,13.7801724 C11.3958129,13.9267106 11.5873056,14 11.8123336,14 C11.9124142,14 12.0166976,13.9804535 12.1248774,13.9422103 C13.2912143,13.4875815 14.2291083,12.7616082 14.9373336,11.7640473 Z" id="Shape"></path>
                            <path d="M17.6270936,3.24618947 C16.7118606,1.80225627 15.4936702,0.738795015 13.9729392,0.056160402 C13.879375,0.018720134 13.7855836,0 13.6921329,0 C13.5047773,0 13.3424125,0.071372974 13.2056823,0.213764225 C13.0685734,0.356234297 13,0.525188433 13,0.720193113 C13,0.990196561 13.1406303,1.21160648 13.4218152,1.38410759 C13.4723649,1.41390216 13.5530929,1.45327356 13.6649081,1.50218237 C13.7766096,1.55073649 13.8576026,1.59010789 13.9082659,1.62013892 C14.2397355,1.80753732 14.535309,1.9989162 14.7949867,2.19396029 C15.6812909,2.87647667 16.3732724,3.72790778 16.8705903,4.74813538 C17.3679082,5.76828415 17.6164157,6.85219962 17.6164157,8 C17.6164157,9.14799744 17.3679082,10.2316764 16.8705903,11.2518646 C16.373386,12.272171 15.6812909,13.1237204 14.7949867,13.8060397 C14.535309,14.0010444 14.2397355,14.192305 13.9082659,14.3799399 C13.8576026,14.4097345 13.7766096,14.4489876 13.6649081,14.4977782 C13.5530929,14.5463323 13.4723649,14.5857037 13.4218152,14.6159318 C13.1406303,14.7883147 13,15.009764 13,15.2797675 C13,15.4748116 13.0685734,15.6436475 13.2056823,15.7861175 C13.3423746,15.9286664 13.5047394,16 13.6921329,16 C13.7855836,16 13.879375,15.9812405 13.9729392,15.9436031 C15.4936702,15.261205 16.7118606,14.1977043 17.6270936,12.7536923 C18.5424403,11.3097591 19,9.72501108 19,7.99976354 C19,6.27451599 18.5425539,4.68996502 17.6270936,3.24618947 Z" id="Shape"></path>
                        </g>
                    </g>
                </g>
            </g>
        </g>
    </g>
</svg>