<?xml version="1.0" encoding="UTF-8"?>
<svg width="39px" height="27px" viewBox="0 0 39 27" version="1.1" xmlns="http://www.w3.org/2000/svg" xmlns:xlink="http://www.w3.org/1999/xlink">
    <!-- Generator: Sketch 50 (54983) - http://www.bohemiancoding.com/sketch -->
    <title>unmute</title>
    <desc>Created with Sketch.</desc>
    <defs></defs>
    <g id="Desktop" stroke="none" stroke-width="1" fill="none" fill-rule="evenodd">
        <g id="Conference-Call-Page" transform="translate(-214.000000, -280.000000)" fill="#2E7EED">
            <g id="speakers" transform="translate(78.000000, 93.000000)">
                <g id="speaker" transform="translate(0.000000, 45.000000)">
                    <g id="unmute" transform="translate(136.000000, 142.000000)">
                        <text id="UNMUTE" font-family="HelveticaNeue-Medium, Helvetica Neue" font-size="9" font-weight="400">
                            <tspan x="0" y="26">UNMUTE</tspan>
                        </text>
                        <g id="volume-up-interface-symbol" transform="translate(13.000000, 0.000000)" fill-rule="nonzero">
                            <path d="M5.91173529,0.883105651 C5.76626471,0.883105651 5.64029412,0.936530713 5.53388235,1.043086 L2.73758824,3.8462801 L0.537529412,3.8462801 C0.391882353,3.8462801 0.265941176,3.89970516 0.159588235,4.00620147 C0.0532058824,4.11281572 0,4.23915479 0,4.38504177 L0,7.61737592 C0,7.76329238 0.0532058824,7.88960197 0.159588235,7.99618673 C0.266029412,8.10283047 0.392,8.15619656 0.537529412,8.15619656 L2.73747059,8.15619656 L5.53376471,10.9594791 C5.64014706,11.0659165 5.76611765,11.1194005 5.91161765,11.1194005 C6.05726471,11.1194005 6.18320588,11.0659459 6.28955882,10.9594791 C6.39594118,10.8529238 6.44914706,10.7265258 6.44914706,10.5806978 L6.44914706,1.42195577 C6.44914706,1.2760688 6.39594118,1.14970025 6.28967647,1.043086 C6.18323529,0.936530713 6.05738235,0.883105651 5.91173529,0.883105651 Z" id="Shape"></path>
                            <path d="M9.31673529,7.19221622 C9.55476471,6.82463882 9.67364706,6.42769533 9.67364706,6.00120885 C9.67364706,5.57472236 9.55476471,5.17589189 9.31673529,4.80545455 C9.07867647,4.43507617 8.76405882,4.17420147 8.372,4.02262408 C8.31605882,3.99464373 8.246,3.98055037 8.16202941,3.98055037 C8.01661765,3.98055037 7.8905,4.03250123 7.78417647,4.13628501 C7.678,4.24009828 7.62455882,4.36779361 7.62455882,4.51928256 C7.62455882,4.63713022 7.65817647,4.73675676 7.7255,4.81816216 C7.79264706,4.89959705 7.87376471,4.96976904 7.96908824,5.02864865 C8.06408824,5.08755774 8.15932353,5.15212776 8.25461765,5.22227027 C8.34985294,5.29244226 8.43097059,5.39203931 8.49808824,5.52109091 C8.56502941,5.65023096 8.59885294,5.81015233 8.59885294,6.00100246 C8.59885294,6.19179361 8.56523529,6.35174447 8.49808824,6.48088452 C8.43097059,6.61005405 8.34985294,6.70953317 8.25461765,6.77985258 C8.15932353,6.84999509 8.06408824,6.91456511 7.96908824,6.9734742 C7.87376471,7.03220639 7.79264706,7.1025258 7.7255,7.1837543 C7.65838235,7.26527764 7.62455882,7.36487469 7.62455882,7.48272236 C7.62455882,7.63438821 7.67797059,7.76193612 7.78417647,7.8657199 C7.89047059,7.96953317 8.01658824,8.02163145 8.16202941,8.02163145 C8.24597059,8.02163145 8.31602941,8.0075086 8.372,7.97964619 C8.76405882,7.82223096 9.07879412,7.55979361 9.31673529,7.19221622 Z" id="Shape"></path>
                            <path d="M11.1096471,8.37918428 C11.5855294,7.65252088 11.8235588,6.85984275 11.8235588,6.00117936 C11.8235588,5.14248649 11.5855,4.34992629 11.1096471,3.62282064 C10.6338529,2.89618673 10.0037647,2.36730221 9.22020588,2.03613759 C9.14752941,2.00812776 9.07467647,1.99406388 9.00208824,1.99406388 C8.85655882,1.99406388 8.73044118,2.04740049 8.62402941,2.15404423 C8.51776471,2.26065848 8.4645,2.38690909 8.4645,2.53282555 C8.4645,2.75171499 8.57370588,2.91726781 8.79211765,3.02960197 C9.10555882,3.19229484 9.31823529,3.31574447 9.43014706,3.39989189 C9.84452941,3.70298771 10.1677059,4.08312531 10.4000294,4.54051106 C10.6323235,4.99792629 10.7485,5.48476658 10.7485,6.00106143 C10.7485,6.51738575 10.6323529,7.00419656 10.4000294,7.46158231 C10.1677353,7.91905651 9.84432353,8.29913514 9.43014706,8.60214251 C9.31820588,8.68637838 9.10555882,8.80979853 8.79211765,8.97255037 C8.57370588,9.08485504 8.4645,9.25040786 8.4645,9.46926781 C8.4645,9.61515479 8.51776471,9.74158231 8.62402941,9.84804914 C8.73041176,9.95481081 8.85905882,10.0082064 9.01023529,10.0082064 C9.07747059,10.0082064 9.14752941,9.9939656 9.22020588,9.96610319 C10.0037647,9.63487961 10.6338529,9.1059656 11.1096471,8.37918428 Z" id="Shape"></path>
                            <path d="M12.9065882,2.44481572 C12.1956765,1.36457985 11.2494412,0.568982801 10.0682059,0.0582899263 C9.99552941,0.0302800983 9.92267647,0.0162751843 9.85008824,0.0162751843 C9.70455882,0.0162751843 9.57844118,0.0696707617 9.47223529,0.17619656 C9.36573529,0.282781327 9.31247059,0.409179361 9.31247059,0.555066339 C9.31247059,0.757061425 9.42170588,0.922702703 9.64011765,1.0517543 C9.67938235,1.07404423 9.74208824,1.10349877 9.82894118,1.14008845 C9.91570588,1.17641278 9.97861765,1.20586732 10.0179706,1.22833415 C10.2754412,1.36853071 10.5050294,1.51170516 10.7067353,1.65762162 C11.3951765,2.16822604 11.9326765,2.80519902 12.3189706,3.56845209 C12.7052647,4.33164619 12.8982941,5.14254545 12.8982941,6.00123833 C12.8982941,6.86007862 12.7052647,7.67080098 12.3189706,8.43402457 C11.9327647,9.19733661 11.3951765,9.83439803 10.7067353,10.344855 C10.5050294,10.490742 10.2754412,10.633828 10.0179706,10.7742015 C9.97861765,10.7964914 9.91570588,10.8258575 9.82894118,10.8623587 C9.74208824,10.898683 9.67938235,10.9281376 9.64011765,10.9507518 C9.42170588,11.079715 9.31247059,11.2453857 9.31247059,11.4473808 C9.31247059,11.5932973 9.36573529,11.7196069 9.47223529,11.8261916 C9.57841176,11.9328354 9.70452941,11.9862015 9.85008824,11.9862015 C9.92267647,11.9862015 9.99552941,11.9721671 10.0682059,11.9440098 C11.2494412,11.4334939 12.1956765,10.6378673 12.9065882,9.55757248 C13.6175882,8.47733661 13.973,7.2917543 13.973,6.00106143 C13.973,4.71036855 13.6176765,3.52493366 12.9065882,2.44481572 Z" id="Shape"></path>
                        </g>
                    </g>
                </g>
            </g>
        </g>
    </g>
</svg>