<?xml version="1.0" encoding="UTF-8"?>
<svg width="30px" height="30px" viewBox="0 0 30 30" version="1.1" xmlns="http://www.w3.org/2000/svg" xmlns:xlink="http://www.w3.org/1999/xlink">
    <!-- Generator: Sketch 50 (54983) - http://www.bohemiancoding.com/sketch -->
    <title>upload file</title>
    <desc>Created with Sketch.</desc>
    <defs></defs>
    <g id="Desktop" stroke="none" stroke-width="1" fill="none" fill-rule="evenodd">
        <g id="Conference-Call-Page" transform="translate(-554.000000, -15.000000)">
            <g id="header-conference">
                <g id="actions" transform="translate(454.000000, 15.000000)">
                    <g id="upload-file" transform="translate(100.000000, 0.000000)">
                        <circle id="Oval-Copy" fill="#96BEF6" cx="15" cy="15" r="15"></circle>
                        <g id="file" transform="translate(9.000000, 7.000000)" fill="#2E7EED" fill-rule="nonzero">
                            <path d="M8.27591489,0 L0,0 L0,15 L12,15 L12,3.6465 L8.27591489,0 Z M2.80851064,3.5 L5.36170213,3.5 C5.5026383,3.5 5.61702128,3.61175 5.61702128,3.75 C5.61702128,3.88825 5.5026383,4 5.36170213,4 L2.80851064,4 C2.66757447,4 2.55319149,3.88825 2.55319149,3.75 C2.55319149,3.61175 2.66757447,3.5 2.80851064,3.5 Z M9.19148936,12 L2.80851064,12 C2.66757447,12 2.55319149,11.88825 2.55319149,11.75 C2.55319149,11.61175 2.66757447,11.5 2.80851064,11.5 L9.19148936,11.5 C9.33242553,11.5 9.44680851,11.61175 9.44680851,11.75 C9.44680851,11.88825 9.33242553,12 9.19148936,12 Z M9.19148936,10 L2.80851064,10 C2.66757447,10 2.55319149,9.88825 2.55319149,9.75 C2.55319149,9.61175 2.66757447,9.5 2.80851064,9.5 L9.19148936,9.5 C9.33242553,9.5 9.44680851,9.61175 9.44680851,9.75 C9.44680851,9.88825 9.33242553,10 9.19148936,10 Z M9.19148936,8 L2.80851064,8 C2.66757447,8 2.55319149,7.88825 2.55319149,7.75 C2.55319149,7.61175 2.66757447,7.5 2.80851064,7.5 L9.19148936,7.5 C9.33242553,7.5 9.44680851,7.61175 9.44680851,7.75 C9.44680851,7.88825 9.33242553,8 9.19148936,8 Z M9.19148936,6 L2.80851064,6 C2.66757447,6 2.55319149,5.88825 2.55319149,5.75 C2.55319149,5.61175 2.66757447,5.5 2.80851064,5.5 L9.19148936,5.5 C9.33242553,5.5 9.44680851,5.61175 9.44680851,5.75 C9.44680851,5.88825 9.33242553,6 9.19148936,6 Z M7.91489362,4 L7.91489362,0.5 L11.4893617,4 L7.91489362,4 Z" id="Shape"></path>
                        </g>
                    </g>
                </g>
            </g>
        </g>
    </g>
</svg>