<?xml version="1.0" encoding="UTF-8"?>
<svg width="74px" height="74px" viewBox="0 0 74 74" version="1.1" xmlns="http://www.w3.org/2000/svg" xmlns:xlink="http://www.w3.org/1999/xlink">
    <!-- Generator: Sketch 50 (54983) - http://www.bohemiancoding.com/sketch -->
    <title>3d-modeling</title>
    <desc>Created with Sketch.</desc>
    <defs></defs>
    <g id="Desktop" stroke="none" stroke-width="1" fill="none" fill-rule="evenodd">
        <g id="Conference-Call-Page-Share-Screen" transform="translate(-603.000000, -347.000000)" fill="#2E7EED" fill-rule="nonzero">
            <g id="pop-up" transform="translate(420.000000, 261.000000)">
                <g id="3d-modeling" transform="translate(183.000000, 86.000000)">
                    <path d="M54.9991093,18.0189955 C55.0327817,16.502064 54.1090324,15.1235669 52.6810653,14.5598501 C51.2530981,13.9961333 49.6204957,14.3653863 48.5840236,15.4865469 L40.14643,11.1508889 C40.1753333,10.985224 40.1925308,10.8178483 40.1977334,10.6497598 C40.1977334,8.63412291 38.5412857,7 36.498112,7 C34.4549383,7 32.7984906,8.63398035 32.7984906,10.6497598 C32.8036932,10.8177058 32.8208906,10.985224 32.8497939,11.1508889 L24.4122003,15.4865469 C23.3755838,14.3672397 21.7439929,13.9992698 20.3173264,14.5629866 C18.8906599,15.1267034 17.9676333,16.50406 18.0008721,18.0198509 C18.0341108,19.5356417 19.0163892,20.8723662 20.4664674,21.3747785 L20.4664674,30.3393584 C18.992544,30.8514653 18.0049185,32.2234043 18.000005,33.7650001 C17.9975482,35.2499961 18.908869,36.5878612 20.3035973,37.1468732 C21.6981812,37.7057427 23.2971113,37.3738427 24.3451447,36.3078562 L32.859332,41.6865471 C32.5896643,43.1264914 33.2184554,44.5861101 34.4563834,45.3940472 C35.6943114,46.2019843 37.301768,46.2019843 38.539696,45.3940472 C39.777624,44.5861101 40.4062706,43.1264914 40.1367474,41.6865471 L48.6509347,36.3078562 C49.7113965,37.3889549 51.3366287,37.7157225 52.7413287,37.1300501 C54.1460287,36.5443777 55.0411636,35.1670211 54.9943403,33.663206 C54.947517,32.1593909 53.9682734,30.8389193 52.529612,30.339501 L52.529612,21.3750636 C53.9814244,20.8732217 54.965437,19.5359269 54.9991093,18.0189955 Z M36.498112,9.43307814 C37.1792181,9.43307814 37.7312709,9.97769073 37.7312709,10.6496172 C37.7312709,11.3215437 37.1792181,11.8661563 36.498112,11.8661563 C35.8170059,11.8661563 35.264953,11.3215437 35.264953,10.6496172 C35.2655311,9.97797587 35.8172949,9.43364842 36.498112,9.43307814 Z M25.3771367,17.7335728 L33.9836701,13.3109479 C35.3938617,14.6288534 37.6023623,14.6288534 39.0125539,13.3109479 L47.6190872,17.7335728 C47.6147517,17.8062829 47.5969762,17.8752862 47.5969762,17.9491368 C47.6007336,18.1478776 47.6209659,18.3459056 47.6576731,18.5413673 L38.8930388,23.7064903 C37.5236008,22.5184649 35.4729122,22.5184649 34.1033297,23.7064903 L25.3386954,18.5413673 C25.3754025,18.3459056 25.3956349,18.1478776 25.3992478,17.9491368 C25.3992478,17.8752862 25.3816168,17.8062829 25.3771367,17.7335728 Z M37.7312709,26.4651954 C37.7312709,27.1371219 37.1792181,27.6817345 36.498112,27.6817345 C35.8170059,27.6817345 35.264953,27.1371219 35.264953,26.4651954 C35.264953,25.7932689 35.8170059,25.2486563 36.498112,25.2486563 C37.178929,25.2493692 37.7306929,25.7935541 37.7312709,26.4651954 Z M21.6996264,16.7325977 C22.3807324,16.7325977 22.9327853,17.2772103 22.9327853,17.9491368 C22.9327853,18.6210633 22.3805879,19.1656758 21.6996264,19.1656758 C21.0185203,19.1656758 20.4664674,18.6210633 20.4664674,17.9491368 C20.4670455,17.2774954 21.0188093,16.733168 21.6996264,16.7325977 Z M21.6996264,34.9813966 C21.0185203,34.9813966 20.4664674,34.436784 20.4664674,33.7648575 C20.4664674,33.0929311 21.0186648,32.5483185 21.6996264,32.5483185 C22.3807324,32.5483185 22.9327853,33.0929311 22.9327853,33.7648575 C22.9322073,34.4363563 22.3804434,34.9806838 21.6996264,34.9813966 Z M34.0612754,39.556285 L25.3684658,34.0648222 C25.3769922,33.9641686 25.3991032,33.867507 25.3991032,33.7648575 C25.3943342,32.2232617 24.4065642,30.8514653 22.9326408,30.3392158 L22.9326408,21.3747785 C23.377607,21.2183806 23.7878892,20.9790077 24.141232,20.6696335 L32.8654017,25.8109475 C32.5172615,27.5716714 33.5426058,29.315002 35.2648085,29.8908371 L35.2648085,38.855417 C34.8220101,39.0109595 34.413462,39.2489067 34.0612754,39.556285 Z M36.498112,43.4974552 C35.8170059,43.4974552 35.264953,42.9528426 35.264953,42.2809162 C35.264953,41.6089897 35.8170059,41.0643771 36.498112,41.0643771 C37.1792181,41.0643771 37.7312709,41.6089897 37.7312709,42.2809162 C37.7306929,42.9525575 37.178929,43.4967424 36.498112,43.4974552 Z M50.0632941,30.3390732 C48.5893707,30.8513227 47.6017452,32.2231192 47.5969762,33.764715 C47.5969762,33.8673645 47.6192317,33.9640261 47.6277582,34.0646796 L38.9349485,39.5561424 C38.5827619,39.2487642 38.1742139,39.0108169 37.7312709,38.8551319 L37.7312709,29.8906946 C39.4534736,29.3148594 40.4788179,27.5715288 40.1306777,25.8106623 L48.8548475,20.6693484 C49.2080457,20.9787225 49.6184725,21.2180954 50.0634386,21.3743508 L50.0634386,30.3390732 L50.0632941,30.3390732 Z M51.2965976,34.9813966 C50.6154915,34.9813966 50.0634386,34.436784 50.0634386,33.7648575 C50.0634386,33.0929311 50.6154915,32.5483185 51.2965976,32.5483185 C51.9777037,32.5483185 52.5297566,33.0929311 52.5297566,33.7648575 C52.5291785,34.4363563 51.9774146,34.9806838 51.2965976,34.9813966 Z M51.2965976,19.1656758 C50.6154915,19.1656758 50.0634386,18.6210633 50.0634386,17.9491368 C50.0641612,17.2774954 50.6157806,16.733168 51.2965976,16.7325977 C51.9777037,16.7325977 52.5297566,17.2772103 52.5297566,17.9491368 C52.5297566,18.6210633 51.9777037,19.1656758 51.2965976,19.1656758 Z" id="Shape"></path>
                    <path d="M67.8332852,0 L6.16671484,0 C2.76257031,0.00404686709 0.004046875,2.76256491 0,6.16670279 L0,57.9666015 C0.004046875,61.3707394 2.76257031,64.1292575 6.16671484,64.1333043 L25.9,64.1333043 L25.9,66.5998698 L17.2667148,66.5998698 C16.9396406,66.5997253 16.6258633,66.7296586 16.3944687,66.9610527 C16.1632187,67.1923022 16.0332852,67.506079 16.0332852,67.8332971 L16.0332852,72.7665726 C16.0331406,73.0936462 16.1630742,73.4074229 16.3944687,73.638817 C16.6257187,73.8700665 16.9394961,73.9999999 17.2667148,73.9999999 L56.7334297,73.9999999 C57.0605039,74.0001444 57.3742812,73.8702111 57.6056758,73.638817 C57.8369258,73.4075674 57.9668594,73.0937907 57.9668594,72.7665726 L57.9668594,67.8332971 C57.9670039,67.5062235 57.8370703,67.1924468 57.6056758,66.9610527 C57.3744258,66.7298032 57.0606484,66.5998698 56.7334297,66.5998698 L48.1,66.5998698 L48.1,64.1331598 L67.8332852,64.1331598 C71.2374297,64.1291129 73.9959531,61.3705949 74,57.966457 L74,6.16655826 C73.9959531,2.76256491 71.2374297,0.00404686709 67.8332852,0 Z M55.5,69.0665798 L55.5,71.5332899 L18.5,71.5332899 L18.5,69.0665798 L55.5,69.0665798 Z M28.3667148,66.5998698 L28.3667148,64.1331598 L45.6334297,64.1331598 L45.6334297,66.5998698 L28.3667148,66.5998698 Z M71.5332852,57.9666015 C71.5311172,60.0091132 69.8758008,61.6644263 67.8332852,61.6665943 L6.16671484,61.6665943 C4.12419922,61.6644263 2.46888281,60.0091132 2.46671484,57.9666015 L2.46671484,54.2666088 L71.5334297,54.2666088 L71.5334297,57.9666015 L71.5332852,57.9666015 Z M71.5334297,51.7998987 L2.46671484,51.7998987 L2.46671484,6.16670279 C2.46888281,4.12419116 4.12419922,2.46887799 6.16671484,2.46671002 L67.8334297,2.46671002 C69.8759453,2.46887799 71.5312617,4.12419116 71.5334297,6.16670279 L71.5334297,51.7998987 Z" id="Shape"></path>
                </g>
            </g>
        </g>
    </g>
</svg>