<?xml version="1.0" encoding="UTF-8"?>
<svg width="35px" height="33px" viewBox="0 0 35 33" version="1.1" xmlns="http://www.w3.org/2000/svg" xmlns:xlink="http://www.w3.org/1999/xlink">
    <!-- Generator: Sketch 50 (54983) - http://www.bohemiancoding.com/sketch -->
    <title>2-monitors</title>
    <desc>Created with Sketch.</desc>
    <defs></defs>
    <g id="Desktop" stroke="none" stroke-width="1" fill="none" fill-rule="evenodd">
        <g id="Homepage" transform="translate(-623.000000, -2030.000000)" fill="#2E7EED" fill-rule="nonzero">
            <g id="block-3" transform="translate(176.000000, 1794.000000)">
                <g id="screen-sharing" transform="translate(363.000000, 236.000000)">
                    <g id="2-monitors" transform="translate(84.000000, 0.000000)">
                        <path d="M31.6665959,16.4999475 L28.3337226,16.4999475 L28.3337226,8.25002627 C28.3337226,6.42691591 26.8410046,4.94997373 25.0003185,4.94997373 L16.6667021,4.94997373 L16.6667021,3.30005255 C16.6667021,1.47757273 15.1741964,0 13.3335103,0 L3.3334041,0 C1.49250563,-1.86678266e-16 0,1.47767782 0,3.30005255 L0,9.90005255 C0,11.7225324 1.49250563,13.1998949 3.3334041,13.1998949 L13.3334041,13.1998949 C15.1740903,13.1998949 16.6665959,11.7225324 16.6665959,9.90005255 L16.6665959,8.25002627 L25.0002123,8.25002627 L25.0002123,16.4999475 L21.6668082,16.4999475 C19.826122,16.4999475 18.3334041,17.9777304 18.3334041,19.8 L18.3334041,26.4002102 C18.3334041,28.2224798 19.826122,29.6998424 21.6668082,29.6998424 L31.6665959,29.6998424 C33.5078128,29.6998424 35,28.2223747 35,26.4002102 L35,19.8 C35.0001062,17.9777304 33.5078128,16.4999475 31.6665959,16.4999475 Z M13.3334041,9.90005255 L3.3334041,9.90005255 L3.3334041,3.30005255 L13.3334041,3.30005255 L13.3334041,9.90005255 Z M31.6665959,26.4002102 L21.6668082,26.4002102 L21.6668082,19.8 L25.0002123,19.8 L28.3336164,19.8 L31.6664897,19.8 L31.6664897,26.4002102 L31.6665959,26.4002102 Z M5.00010615,16.4999475 L11.6667021,16.4999475 L11.6667021,14.8499212 L5.00010615,14.8499212 L5.00010615,16.4999475 Z M23.3336164,33 L30,33 L30,31.3499737 L23.3336164,31.3499737 L23.3336164,33 Z" id="Shape"></path>
                    </g>
                </g>
            </g>
        </g>
    </g>
</svg>