<?xml version="1.0" encoding="UTF-8"?>
<svg width="24px" height="26px" viewBox="0 0 24 26" version="1.1" xmlns="http://www.w3.org/2000/svg" xmlns:xlink="http://www.w3.org/1999/xlink">
    <!-- Generator: Sketch 50 (54983) - http://www.bohemiancoding.com/sketch -->
    <title>agenda</title>
    <desc>Created with Sketch.</desc>
    <defs></defs>
    <g id="Desktop" stroke="none" stroke-width="1" fill="none" fill-rule="evenodd">
        <g id="Homepage" transform="translate(-992.000000, -1871.000000)" fill="#2E7EED" fill-rule="nonzero">
            <g id="block-3" transform="translate(176.000000, 1794.000000)">
                <g id="local-dial-in-number" transform="translate(726.000000, 77.000000)">
                    <g id="agenda" transform="translate(90.000000, 0.000000)">
                        <path d="M23.253112,0 C22.176249,0 1.83136929,0 0.746887967,0 C0.334406639,0 0,0.341046875 0,0.76171875 L0,25.2382812 C0,25.6589531 0.334406639,26 0.746887967,26 L19.6680498,26 C20.0805311,26 20.4149378,25.6589531 20.4149378,25.2382812 L20.4149378,19.8808594 L23.253112,19.8808594 C23.6655934,19.8808594 24,19.5398125 24,19.1191406 C24,18.3175078 24,1.26673828 24,0.76171875 C24,0.341046875 23.6655934,0 23.253112,0 Z M14.7898906,16.9014528 L13.2836262,18.5446472 C12.9482259,18.9105899 12.4709274,19.0700311 12.0073069,18.9713195 C8.26242612,18.1744785 4.75676855,14.3500798 4.02628174,10.264763 C3.93579588,9.75883967 4.08204629,9.23830782 4.41739875,8.87241728 L5.92366312,7.22922288 C6.20377713,6.92359237 6.6580238,6.92359237 6.93818563,7.22922288 L9.5997708,10.1327649 C9.87978915,10.4382389 9.8798848,10.9339884 9.5997708,11.2395146 L9.0676642,11.8199413 C9.46906369,12.4606801 9.99428342,13.0336982 10.5816285,13.4715356 L11.1136873,12.8910567 C11.3937056,12.5855827 11.8480958,12.5854784 12.1282098,12.8910567 L14.7897949,15.7945987 C15.0700524,16.1003336 15.0700524,16.5958223 14.7898906,16.9014528 Z M22,19 L20,19 L20,14 L22,14 L22,19 Z M22,13 L20,13 L20,8 L22,8 L22,13 Z M22,7 L20,7 L20,2 L22,2 L22,7 Z" id="Shape"></path>
                    </g>
                </g>
            </g>
        </g>
    </g>
</svg>