<?xml version="1.0" encoding="UTF-8"?>
<svg width="28px" height="28px" viewBox="0 0 28 28" version="1.1" xmlns="http://www.w3.org/2000/svg" xmlns:xlink="http://www.w3.org/1999/xlink">
    <!-- Generator: Sketch 50 (54983) - http://www.bohemiancoding.com/sketch -->
    <title>contract</title>
    <desc>Created with Sketch.</desc>
    <defs></defs>
    <g id="Desktop" stroke="none" stroke-width="1" fill="none" fill-rule="evenodd">
        <g id="Homepage" transform="translate(-989.000000, -2200.000000)" fill-rule="nonzero">
            <g id="block-3" transform="translate(176.000000, 1794.000000)">
                <g id="conference-transcription" transform="translate(726.000000, 406.000000)">
                    <g id="contract" transform="translate(87.000000, 0.000000)">
                        <path d="M20.9999446,4.85677778 C20.9999446,4.18944444 20.7403424,3.56122222 20.2698689,3.08922222 L17.9207128,0.732444444 C17.4567736,0.266944444 16.7981881,0 16.142759,0 L16,0 L16,5 L21,5 L20.9999446,4.85677778 Z" id="Shape" fill="#2E7EED"></path>
                        <path d="M14.7537451,16.9278047 C14.9083719,16.4511484 15.1782013,16.0073594 15.5300567,15.6476797 L21,10.115875 L21,6.5625 L15.3233491,6.5625 C14.876811,6.5625 14.5417055,6.19560156 14.5417055,5.7421875 L14.5417055,0 L2.42361758,0 C1.08718099,0 0,1.10392187 0,2.4609375 L0,25.5390625 C0,26.8960781 1.08718099,28 2.42361758,28 L18.5548392,28 C19.8912757,28 21,26.8960781 21,25.5390625 L21,19.4167422 L20.112202,20.2963359 C19.7524832,20.6584219 19.3312047,20.9219609 18.8562295,21.0830156 L16.2874641,21.9538047 L15.8961307,21.9754609 C15.2491864,21.9754609 14.6369806,21.6558125 14.2567419,21.1206953 C13.879627,20.5879844 13.777081,19.8974453 13.9821729,19.2734062 L14.7537451,16.9278047 Z M4.03936263,14.765625 L12.091859,14.765625 C12.538397,14.765625 12.8997315,15.1325234 12.8997315,15.5859375 C12.8997315,16.0393516 12.538397,16.40625 12.091859,16.40625 L4.03936263,16.40625 C3.59282455,16.40625 3.2314901,16.0393516 3.2314901,15.5859375 C3.2314901,15.1325234 3.59282455,14.765625 4.03936263,14.765625 Z M3.2314901,12.3046875 C3.2314901,11.8512734 3.59282455,11.484375 4.03936263,11.484375 L12.091859,11.484375 C12.538397,11.484375 12.8997315,11.8512734 12.8997315,12.3046875 C12.8997315,12.7581016 12.538397,13.125 12.091859,13.125 L4.03936263,13.125 C3.59282455,13.125 3.2314901,12.7581016 3.2314901,12.3046875 Z M3.2314901,18.8671875 C3.2314901,18.4137734 3.59282455,18.046875 4.03936263,18.046875 L12.091859,18.046875 C12.538397,18.046875 12.8997315,18.4137734 12.8997315,18.8671875 C12.8997315,19.3206016 12.538397,19.6875 12.091859,19.6875 L4.03936263,19.6875 C3.59282455,19.6875 3.2314901,19.3206016 3.2314901,18.8671875 Z M15.3233491,22.96875 C15.7698871,22.96875 16.1312216,23.3356484 16.1312216,23.7890625 C16.1312216,24.2424766 15.769941,24.609375 15.3233491,24.609375 L10.4761139,24.609375 C10.0295758,24.609375 9.66824138,24.2424766 9.66824138,23.7890625 C9.66824138,23.3356484 10.0295758,22.96875 10.4761139,22.96875 L15.3233491,22.96875 Z M4.03936263,9.84375 C3.59282455,9.84375 3.2314901,9.47685156 3.2314901,9.0234375 C3.2314901,8.57002344 3.59282455,8.203125 4.03936263,8.203125 L15.3233491,8.203125 C15.7698871,8.203125 16.1312216,8.57002344 16.1312216,9.0234375 C16.1312216,9.47685156 15.7698871,9.84375 15.3233491,9.84375 L4.03936263,9.84375 Z" id="Shape" fill="#2E7EED"></path>
                        <path d="M16.5487266,18 L16.0162503,19.5968446 C15.93644,19.8360592 16.1641604,20.0636089 16.4034687,19.9837075 L18,19.4507054 L16.5487266,18 Z" id="Shape" fill="#2E7EED"></path>
                        <path d="M22.5896286,11 L17,16.589431 L19.4106543,19 C20.6740058,17.7364669 23.1321885,15.2780316 25,13.4102862 L22.5896286,11 Z" id="Shape" fill="#2E7EED"></path>
                        <path d="M27.5182048,8.45831329 C27.2299859,8.16671936 26.8056106,8 26.3556001,8 C25.9055895,8 25.4812688,8.16671936 25.1914102,8.45913809 L24,9.65768094 L26.3283797,12 C26.9806299,11.34379 27.4314604,10.8902605 27.5198992,10.8013472 C28.160343,10.1560795 28.1602884,9.10506564 27.5182048,8.45831329 Z" id="Shape" fill="#2E7EED"></path>
                        <g id="Group" transform="translate(27.000000, 11.000000)" fill="#000000">
                            <path d="M0.05375,0.246 C0.05425,0.246 0.05425,0.2455 0.05475,0.245 C0.07375,0.226 0.08225,0.2175 0.09775,0.202 C0.08225,0.218 0.07375,0.2265 0.05375,0.246 Z" id="Shape"></path>
                            <path d="M0.07575,0.23525 C0.09975,0.21125 0.12775,0.18325 0.14225,0.16875 C0.12725,0.18375 0.09975,0.21125 0.07575,0.23525 Z" id="Shape"></path>
                            <path d="M0.109,0.187125478 C0.1575,0.138625478 0.1585,0.137625478 0.109,0.187125478 Z" id="Shape"></path>
                        </g>
                    </g>
                </g>
            </g>
        </g>
    </g>
</svg>