<?xml version="1.0" encoding="UTF-8"?>
<svg width="24px" height="31px" viewBox="0 0 24 31" version="1.1" xmlns="http://www.w3.org/2000/svg" xmlns:xlink="http://www.w3.org/1999/xlink">
    <!-- Generator: Sketch 50 (54983) - http://www.bohemiancoding.com/sketch -->
    <title>file</title>
    <desc>Created with Sketch.</desc>
    <defs></defs>
    <g id="Desktop" stroke="none" stroke-width="1" fill="none" fill-rule="evenodd">
        <g id="Homepage" transform="translate(-992.000000, -2031.000000)" fill="#2E7EED" fill-rule="nonzero">
            <g id="block-3" transform="translate(176.000000, 1794.000000)">
                <g id="document-sharing" transform="translate(726.000000, 237.000000)">
                    <g id="file" transform="translate(90.000000, 0.000000)">
                        <path d="M16.5518298,0 L0,0 L0,31 L24,31 L24,7.5361 L16.5518298,0 Z M5.5,7 L10.5,7 C10.776,7 11,7.2235 11,7.5 C11,7.7765 10.776,8 10.5,8 L5.5,8 C5.224,8 5,7.7765 5,7.5 C5,7.2235 5.224,7 5.5,7 Z M18.4814815,25 L5.51851852,25 C5.2322963,25 5,24.7765 5,24.5 C5,24.2235 5.2322963,24 5.51851852,24 L18.4814815,24 C18.7677037,24 19,24.2235 19,24.5 C19,24.7765 18.7677037,25 18.4814815,25 Z M18.4814815,21 L5.51851852,21 C5.2322963,21 5,20.7765 5,20.5 C5,20.2235 5.2322963,20 5.51851852,20 L18.4814815,20 C18.7677037,20 19,20.2235 19,20.5 C19,20.7765 18.7677037,21 18.4814815,21 Z M18.4814815,17 L5.51851852,17 C5.2322963,17 5,16.7765 5,16.5 C5,16.2235 5.2322963,16 5.51851852,16 L18.4814815,16 C18.7677037,16 19,16.2235 19,16.5 C19,16.7765 18.7677037,17 18.4814815,17 Z M18.4814815,12 L5.51851852,12 C5.2322963,12 5,11.7765 5,11.5 C5,11.2235 5.2322963,11 5.51851852,11 L18.4814815,11 C18.7677037,11 19,11.2235 19,11.5 C19,11.7765 18.7677037,12 18.4814815,12 Z M16,8 L16,1 L23,8 L16,8 Z" id="Shape"></path>
                    </g>
                </g>
            </g>
        </g>
    </g>
</svg>