<?xml version="1.0" encoding="UTF-8"?>
<svg width="24px" height="24px" viewBox="0 0 24 24" version="1.1" xmlns="http://www.w3.org/2000/svg" xmlns:xlink="http://www.w3.org/1999/xlink">
    <!-- Generator: Sketch 50 (54983) - http://www.bohemiancoding.com/sketch -->
    <title>Google +_White</title>
    <desc>Created with Sketch.</desc>
    <defs></defs>
    <g id="Desktop" stroke="none" stroke-width="1" fill="none" fill-rule="evenodd" opacity="0.5">
        <g id="Homepage" transform="translate(-168.000000, -4458.000000)" fill="#FFFFFF">
            <g id="footer" transform="translate(0.000000, 4389.000000)">
                <g id="socials" transform="translate(129.000000, 69.000000)">
                    <g id="Google-+" transform="translate(39.000000, 0.000000)">
                        <path d="M0,12 C0,5.37258267 5.29214412,0 11.8203354,0 C18.3485268,0 23.6406709,5.37258267 23.6406709,12 C23.6406709,18.6274173 18.3485268,24 11.8203354,24 C5.29214412,24 0,18.6274173 0,12 Z M9.65722802,11.6571429 L9.65722802,12.96 L11.7871833,12.96 C11.7013413,13.5191429 11.1433681,14.5994286 9.65722802,14.5994286 C8.37496274,14.5994286 7.32876304,13.5245714 7.32876304,12.2 C7.32876304,10.8754286 8.37496274,9.80057143 9.65722802,9.80057143 C10.3868852,9.80057143 10.8751118,10.1154286 11.1540984,10.3868571 L12.1734724,9.39342857 C11.518927,8.77457143 10.671237,8.4 9.65722802,8.4 C7.58092399,8.4 5.90163934,10.0991429 5.90163934,12.2 C5.90163934,14.3008571 7.58092399,16 9.65722802,16 C11.8247392,16 13.2625931,14.4582857 13.2625931,12.2868571 C13.2625931,12.0371429 13.2357675,11.8471429 13.2035768,11.6571429 L9.65722802,11.6571429 Z M17.704918,11.6571429 L16.6318927,11.6571429 L16.6318927,10.5714286 L15.5588674,10.5714286 L15.5588674,11.6571429 L14.485842,11.6571429 L14.485842,12.7428571 L15.5588674,12.7428571 L15.5588674,13.8285714 L16.6318927,13.8285714 L16.6318927,12.7428571 L17.704918,12.7428571 L17.704918,11.6571429 Z" id="Combined-Shape"></path>
                    </g>
                </g>
            </g>
        </g>
    </g>
</svg>