<?xml version="1.0" encoding="UTF-8"?>
<svg width="18px" height="34px" viewBox="0 0 18 34" version="1.1" xmlns="http://www.w3.org/2000/svg" xmlns:xlink="http://www.w3.org/1999/xlink">
    <!-- Generator: Sketch 50 (54983) - http://www.bohemiancoding.com/sketch -->
    <title>microphone</title>
    <desc>Created with Sketch.</desc>
    <defs></defs>
    <g id="Desktop" stroke="none" stroke-width="1" fill="none" fill-rule="evenodd">
        <g id="Homepage" transform="translate(-632.000000, -2197.000000)" fill="#2E7EED" fill-rule="nonzero">
            <g id="block-3" transform="translate(176.000000, 1794.000000)">
                <g id="free-call-recordings" transform="translate(363.000000, 403.000000)">
                    <g id="microphone" transform="translate(93.000000, 0.000000)">
                        <path d="M17.4375,17 C17.127,17 16.875,17.2533 16.875,17.5666667 L16.875,20.9666667 C16.875,25.3413333 13.3425,28.9 9,28.9 C4.6575,28.9 1.125,25.3413333 1.125,20.9666667 L1.125,17.5666667 C1.125,17.2533 0.873,17 0.5625,17 C0.252,17 0,17.2533 0,17.5666667 L0,20.9666667 C0,25.7748333 3.73725,29.7097667 8.4375,30.0044333 L8.4375,32.8666667 L5.625,32.8666667 C5.3145,32.8666667 5.0625,33.1199667 5.0625,33.4333333 C5.0625,33.7467 5.3145,34 5.625,34 L12.375,34 C12.6855,34 12.9375,33.7467 12.9375,33.4333333 C12.9375,33.1199667 12.6855,32.8666667 12.375,32.8666667 L9.5625,32.8666667 L9.5625,30.0044333 C14.26275,29.7097667 18,25.7742667 18,20.9666667 L18,17.5666667 C18,17.2533 17.748,17 17.4375,17 Z" id="Shape"></path>
                        <path d="M9,26 C12.3081818,26 15,23.2106522 15,19.7826087 L15,6.2173913 C15,2.78934783 12.3081818,0 9,0 C5.69181818,0 3,2.78934783 3,6.2173913 L3,19.7826087 C3,23.2106522 5.69181818,26 9,26 Z" id="Shape"></path>
                    </g>
                </g>
            </g>
        </g>
    </g>
</svg>