<?xml version="1.0" encoding="UTF-8"?>
<svg width="43px" height="25px" viewBox="0 0 43 25" version="1.1" xmlns="http://www.w3.org/2000/svg" xmlns:xlink="http://www.w3.org/1999/xlink">
    <!-- Generator: Sketch 50 (54983) - http://www.bohemiancoding.com/sketch -->
    <title>password</title>
    <desc>Created with Sketch.</desc>
    <defs></defs>
    <g id="Desktop" stroke="none" stroke-width="1" fill="none" fill-rule="evenodd">
        <g id="Homepage" transform="translate(-256.000000, -2038.000000)" fill="#2E7EED" fill-rule="nonzero">
            <g id="block-3" transform="translate(176.000000, 1794.000000)">
                <g id="no-pins" transform="translate(0.000000, 244.000000)">
                    <g id="password" transform="translate(80.000000, 0.000000)">
                        <path d="M33.6363443,3.55562963 C35.3888702,3.55562963 37.0934132,3.93495901 38.7002859,4.68320122 C38.9808537,4.8125332 39.3111089,4.79603337 39.575654,4.63195175 C39.8401991,4.46878678 40,4.18487307 40,3.88020958 L40,3.5555463 C40,1.59465006 38.368241,0 36.3636131,0 L3.63638688,0 C1.63175905,0.000166664931 0,1.59473339 0,3.55562963 L0,12.4444537 C0,14.4053499 1.63175905,16 3.63638688,16 L20.909118,16 C21.4116173,16 21.8182361,15.6024208 21.8182361,15.1110926 C21.8181508,8.73965896 27.1199615,3.55562963 33.6363443,3.55562963 Z M6.33169555,8.11899876 C6.76669493,8.36466287 6.91584245,8.90807387 6.66374053,9.33340278 C6.49686577,9.61814981 6.18962189,9.77781481 5.87717915,9.77781481 C5.72266233,9.77781481 5.56644096,9.73964855 5.42266275,9.65889939 L5.21138464,9.53965063 L5.21138464,9.77781481 C5.21138464,10.269143 4.8047659,10.6667222 4.30226662,10.6667222 C3.79976733,10.6667222 3.39314859,10.269143 3.39314859,9.77781481 L3.39314859,9.53965063 L3.18187048,9.65889939 C3.03800705,9.73964855 2.88178568,9.77781481 2.72726885,9.77781481 C2.41474089,9.77781481 2.10758223,9.61806648 1.94070747,9.33340278 C1.68860556,8.90807387 1.83775307,8.36466287 2.27275245,8.11899876 L2.4835192,8.00008333 L2.27275245,7.8811679 C1.83775307,7.6355038 1.68860556,7.09209279 1.94070747,6.66676389 C2.19110484,6.24226831 2.74678587,6.0990198 3.18187048,6.34126728 L3.39314859,6.46051604 L3.39314859,6.22235185 C3.39314859,5.73102364 3.79976733,5.33344444 4.30226662,5.33344444 C4.8047659,5.33344444 5.21138464,5.73102364 5.21138464,6.22235185 L5.21138464,6.46051604 L5.42266275,6.34126728 C5.85587236,6.0964365 6.41342839,6.24060166 6.66382576,6.66676389 C6.91592768,7.09209279 6.76678016,7.6355038 6.33178078,7.8811679 L6.12101403,8.00008333 L6.33169555,8.11899876 Z M13.6043841,8.11899876 C14.0393835,8.36466287 14.188531,8.90807387 13.9364291,9.33340278 C13.7695543,9.61814981 13.4623104,9.77781481 13.1498677,9.77781481 C12.9953509,9.77781481 12.8391295,9.73964855 12.6953513,9.65889939 L12.4840732,9.53965063 L12.4840732,9.77781481 C12.4840732,10.269143 12.0774544,10.6667222 11.5749551,10.6667222 C11.0724559,10.6667222 10.6658371,10.269143 10.6658371,9.77781481 L10.6658371,9.53965063 L10.454559,9.65889939 C10.3106956,9.73964855 10.1544742,9.77781481 10.0000426,9.77781481 C9.68751465,9.77781481 9.38035599,9.61806648 9.21348123,9.33340278 C8.96137932,8.90807387 9.11052683,8.36466287 9.54552621,8.11899876 L9.75629296,8.00008333 L9.54544099,7.8811679 C9.1104416,7.6355038 8.96129409,7.09209279 9.213396,6.66676389 C9.46379338,6.24226831 10.0194744,6.0990198 10.454559,6.34126728 L10.6658371,6.46051604 L10.6658371,6.22235185 C10.6658371,5.73102364 11.0724559,5.33344444 11.5749551,5.33344444 C12.0774544,5.33344444 12.4840732,5.73102364 12.4840732,6.22235185 L12.4840732,6.46051604 L12.6953513,6.34126728 C13.1285609,6.0964365 13.6861169,6.24060166 13.9365143,6.66676389 C14.1886162,7.09209279 14.0394687,7.6355038 13.6044693,7.8811679 L13.3937026,8.00008333 L13.6043841,8.11899876 Z M20.8770726,8.11899876 C21.312072,8.36466287 21.4612195,8.90807387 21.2091176,9.33340278 C21.0422428,9.61814981 20.734999,9.77781481 20.4225562,9.77781481 C20.2680394,9.77781481 20.111818,9.73964855 19.9680398,9.65889939 L19.7567617,9.53965063 L19.7567617,9.77781481 C19.7567617,10.269143 19.350143,10.6667222 18.8476437,10.6667222 C18.3451444,10.6667222 17.9385257,10.269143 17.9385257,9.77781481 L17.9385257,9.53965063 L17.7272475,9.65889939 C17.5833841,9.73964855 17.4271627,9.77781481 17.2727311,9.77781481 C16.9602032,9.77781481 16.6530445,9.61806648 16.4861698,9.33340278 C16.2340678,8.90807387 16.3832154,8.36466287 16.8182147,8.11899876 L17.0289815,8.00008333 L16.8182147,7.8811679 C16.3832154,7.6355038 16.2340678,7.09209279 16.4861698,6.66676389 C16.7365671,6.24226831 17.2940379,6.0990198 17.7273328,6.34126728 L17.9386109,6.46051604 L17.9386109,6.22235185 C17.9386109,5.73102364 18.3452296,5.33344444 18.8477289,5.33344444 C19.3502282,5.33344444 19.7568469,5.73102364 19.7568469,6.22235185 L19.7568469,6.46051604 L19.968125,6.34126728 C20.4013347,6.0964365 20.9588907,6.24060166 21.2092881,6.66676389 C21.46139,7.09209279 21.3122425,7.6355038 20.8772431,7.8811679 L20.6664763,8.00008333 L20.8770726,8.11899876 Z" id="Shape"></path>
                        <path d="M33,5 C27.4868025,5 23,9.48595024 23,15 C23,20.5140498 27.4868877,25 33,25 C38.5131123,25 43,20.5140498 43,15 C43,9.48595024 38.5131123,5 33,5 Z M37.2791031,17.9936165 C37.6342461,18.3487595 37.6342461,18.9240452 37.2791031,19.2791031 C37.1015742,19.456632 36.868903,19.545439 36.6363171,19.545439 C36.4037313,19.545439 36.1711454,19.456632 35.9935312,19.2791031 L32.9999148,16.2854866 L30.0062983,19.2791031 C29.8287694,19.456632 29.5960983,19.545439 29.3635124,19.545439 C29.1309265,19.545439 28.8983406,19.456632 28.7207265,19.2791031 C28.3655834,18.92396 28.3655834,18.3486743 28.7207265,17.9936165 L31.7144282,15 L28.7208117,12.0063835 C28.3656687,11.6512405 28.3656687,11.0759548 28.7208117,10.7208969 C29.0759548,10.3657539 29.6512405,10.3657539 30.0062983,10.7208969 L32.9999148,13.7145134 L35.9935312,10.7208969 C36.3486743,10.3657539 36.92396,10.3657539 37.2790178,10.7208969 C37.6341609,11.07604 37.6341609,11.6513257 37.2790178,12.0063835 L34.2854866,15 L37.2791031,17.9936165 Z" id="Shape"></path>
                    </g>
                </g>
            </g>
        </g>
    </g>
</svg>