<?xml version="1.0" encoding="UTF-8"?>
<svg width="27px" height="32px" viewBox="0 0 27 32" version="1.1" xmlns="http://www.w3.org/2000/svg" xmlns:xlink="http://www.w3.org/1999/xlink">
    <!-- Generator: Sketch 50 (54983) - http://www.bohemiancoding.com/sketch -->
    <title>support</title>
    <desc>Created with Sketch.</desc>
    <defs></defs>
    <g id="Desktop" stroke="none" stroke-width="1" fill="none" fill-rule="evenodd">
        <g id="Homepage" transform="translate(-264.000000, -1864.000000)" fill="#2E7EED" fill-rule="nonzero">
            <g id="block-3" transform="translate(176.000000, 1794.000000)">
                <g id="web-conferences" transform="translate(0.000000, 70.000000)">
                    <g id="support" transform="translate(88.000000, 0.000000)">
                        <path d="M16.8713195,22 L10.0992366,22 C4.53435115,22 0,26.4897959 0,32 L27,32 C26.9705562,26.5189504 22.436205,22 16.8713195,22 Z" id="Shape"></path>
                        <path d="M14.2058824,17.2219731 C14.7352941,17.2219731 15.2352941,17.396861 15.6176471,17.7174888 L18.0588235,17.7174888 C19.2647059,16.4641256 20,14.8026906 20,12.9372197 C20,9.0896861 16.8529412,6 13,6 C9.14705882,6 6,9.0896861 6,12.9372197 C6,15.5313901 7.44117647,17.8049327 9.58823529,19 C9.82352941,17.9798206 10.7352941,17.2219731 11.7941176,17.2219731 L14.2058824,17.2219731 Z" id="Shape"></path>
                        <path d="M3.20445063,13.2859175 C3.29207232,13.997155 3.64255911,14.6514936 4.13908206,15.1351351 C4.51877608,15.5049787 5.01529903,15.7894737 5.57023644,15.9601707 C5.54102921,15.8463727 5.54102921,15.7325747 5.54102921,15.6472262 L5.54102921,10.1280228 C5.54102921,10.0142248 5.54102921,9.90042674 5.57023644,9.78662873 C5.01529903,9.92887624 4.54798331,10.2133713 4.13908206,10.6116643 C4.10987483,10.6401138 4.05146036,10.6970128 4.02225313,10.7254623 L4.02225313,10.4978663 C4.02225313,9.95732575 4.08066759,9.41678521 4.16828929,8.90469417 C4.25591099,8.36415363 4.40194715,7.85206259 4.60639777,7.36842105 C4.78164117,6.85633001 5.01529903,6.37268848 5.30737135,5.91749644 C5.57023644,5.46230441 5.89151599,5.00711238 6.24200278,4.60881935 C6.27121001,4.58036984 6.30041725,4.52347084 6.30041725,4.49502134 C6.56328234,4.52347084 6.82614743,4.43812233 7.00139082,4.26742532 C8.78303199,2.53200569 11.1196106,1.67852063 13.4269819,1.67852063 C15.7343533,1.67852063 18.1001391,2.53200569 19.852573,4.26742532 C20.0570236,4.46657183 20.3198887,4.52347084 20.5535466,4.49502134 C20.5827538,4.52347084 20.5827538,4.58036984 20.6119611,4.60881935 C20.9624478,5.00711238 21.2837274,5.46230441 21.5465925,5.91749644 C21.8094576,6.37268848 22.0431154,6.85633001 22.2475661,7.36842105 C22.4228095,7.88051209 22.5688456,8.39260313 22.6856745,8.93314367 C22.7732962,9.44523471 22.8317107,9.98577525 22.8317107,10.5263158 L22.8317107,10.7539118 C22.8025035,10.6970128 22.744089,10.6685633 22.7148818,10.6401138 C22.3351878,10.2702703 21.8386648,9.98577525 21.2837274,9.81507824 C21.3129346,9.92887624 21.3129346,10.0426743 21.3129346,10.1564723 L21.3129346,15.6472262 C21.3129346,15.7610242 21.3129346,15.8748222 21.2837274,15.9601707 C21.4297636,15.9317212 21.5757997,15.8748222 21.7218359,15.8179232 L21.7218359,17.6102418 C21.7218359,17.8093883 21.6926287,18.0085349 21.6634214,18.1507824 C21.6342142,18.2930299 21.5757997,18.3783784 21.5173853,18.4637269 C21.4589708,18.5206259 21.3713491,18.5775249 21.2837274,18.6059744 C21.1668985,18.6344239 21.0500695,18.6628734 20.9040334,18.6628734 L20.8748261,18.6628734 L15.5006954,18.6628734 C15.325452,18.3783784 15.0333797,18.1792319 14.6536857,18.1792319 L12.2586926,18.1792319 C11.7329624,18.1792319 11.3240612,18.6059744 11.3240612,19.0896159 C11.3532684,19.601707 11.7621697,20 12.2878999,20 L14.6828929,20 C15.0333797,20 15.3546592,19.8008535 15.5299026,19.5163585 L20.9624478,19.5163585 L21.1668985,19.5163585 C21.3713491,19.5163585 21.5465925,19.4594595 21.7218359,19.4025605 C21.9554937,19.3172119 22.1307371,19.2034139 22.3059805,19.0327169 C22.4520167,18.8620199 22.5688456,18.6628734 22.6564673,18.4068279 C22.7148818,18.1792319 22.7732962,17.8947368 22.7732962,17.5817923 L22.7732962,15.3058321 L22.7732962,15.2204836 C22.8025035,15.1920341 22.8317107,15.1635846 22.8609179,15.1351351 C23.3574409,14.6514936 23.7079277,13.997155 23.7955494,13.2859175 C23.8247566,13.257468 23.8539638,13.257468 23.8539638,13.2290185 C23.9415855,13.14367 24,13.0014225 24,12.8876245 L24,10.5263158 C24,9.92887624 23.9415855,9.3314367 23.8539638,8.76244666 C23.6787204,8.16500711 23.5326843,7.59601707 23.3282337,7.02702703 C23.123783,6.45803698 22.8609179,5.91749644 22.5396384,5.40540541 C22.2475661,4.89331437 21.8970793,4.40967283 21.488178,3.9544808 C21.4589708,3.89758179 21.4005563,3.86913229 21.3421419,3.84068279 C21.4005563,3.58463727 21.3129346,3.27169275 21.108484,3.07254623 C19.0055633,1.02418208 16.2600834,0 13.4853964,0 C10.7107093,0 7.96522949,1.02418208 5.83310153,3.07254623 C5.6286509,3.27169275 5.54102921,3.58463727 5.59944367,3.84068279 C5.54102921,3.86913229 5.51182197,3.89758179 5.45340751,3.9544808 C5.04450626,4.40967283 4.69401947,4.89331437 4.40194715,5.40540541 C4.10987483,5.91749644 3.84700974,6.45803698 3.61335188,7.02702703 C3.40890125,7.59601707 3.23365786,8.16500711 3.14603616,8.76244666 C3.02920723,9.3314367 3,9.92887624 3,10.5263158 L3,12.8876245 C3,13.029872 3.05841446,13.14367 3.14603616,13.2290185 C3.17524339,13.257468 3.20445063,13.257468 3.20445063,13.2859175 Z" id="Shape"></path>
                    </g>
                </g>
            </g>
        </g>
    </g>
</svg>