<?xml version="1.0" encoding="UTF-8"?>
<svg width="35px" height="29px" viewBox="0 0 35 29" version="1.1" xmlns="http://www.w3.org/2000/svg" xmlns:xlink="http://www.w3.org/1999/xlink">
    <!-- Generator: Sketch 50 (54983) - http://www.bohemiancoding.com/sketch -->
    <title>support-2</title>
    <desc>Created with Sketch.</desc>
    <defs></defs>
    <g id="Desktop" stroke="none" stroke-width="1" fill="none" fill-rule="evenodd">
        <g id="Homepage" transform="translate(-260.000000, -2202.000000)" fill="#2E7EED" fill-rule="nonzero">
            <g id="block-3" transform="translate(176.000000, 1794.000000)">
                <g id="group-chats" transform="translate(0.000000, 408.000000)">
                    <g id="support-2" transform="translate(84.000000, 0.000000)">
                        <path d="M32.4243421,0 L8.57565789,0 C7.14473684,0 6,1.17771883 6,2.57824934 L6,17.4111406 C6,18.8435013 7.17653509,19.9893899 8.57565789,19.9893899 L25.0153509,19.9893899 L28.7357456,23.7453581 C28.8947368,23.9045093 29.0855263,24 29.308114,24 C29.7532895,24 30.1348684,23.6498674 30.1348684,23.1724138 L30.1348684,19.9893899 L32.4243421,19.9893899 C33.8552632,19.9893899 35,18.8116711 35,17.4111406 L35,2.57824934 C35,1.14588859 33.8234649,0 32.4243421,0 Z M12.2324561,12.7639257 C10.9287281,12.7639257 9.84758772,11.6816976 9.84758772,10.3766578 C9.84758772,9.07161804 10.9287281,7.98938992 12.2324561,7.98938992 C13.5361842,7.98938992 14.6173246,9.07161804 14.6173246,10.3766578 C14.6173246,11.6816976 13.5679825,12.7639257 12.2324561,12.7639257 Z M20.5953947,12.7639257 C19.2916667,12.7639257 18.2105263,11.6816976 18.2105263,10.3766578 C18.2105263,9.07161804 19.2916667,7.98938992 20.5953947,7.98938992 C21.8991228,7.98938992 22.9802632,9.07161804 22.9802632,10.3766578 C22.9802632,11.6816976 21.8991228,12.7639257 20.5953947,12.7639257 Z M28.9265351,12.7639257 C27.622807,12.7639257 26.5416667,11.6816976 26.5416667,10.3766578 C26.5416667,9.07161804 27.622807,7.98938992 28.9265351,7.98938992 C30.2302632,7.98938992 31.3114035,9.07161804 31.3114035,10.3766578 C31.3114035,11.6816976 30.2302632,12.7639257 28.9265351,12.7639257 Z" id="Shape"></path>
                        <path d="M4.50829238,18.1187123 L4.50829238,13 L1.7705337,13 C0.802301975,13 0.00100675265,13.7726358 0.00100675265,14.7062374 L0.00100675265,24.5573441 C-0.0323805483,25.555332 0.768914674,26.3279678 1.7705337,26.3279678 L3.33973684,26.3279678 L3.33973684,28.4527163 C3.33973684,28.7424547 3.60683525,29 3.90732096,29 C4.07425746,29 4.20780667,28.9356137 4.30796857,28.8390342 L6.87879074,26.360161 L18.2304731,26.360161 C19.1987048,26.360161 20,25.5875252 20,24.6539235 L20,22.2072435 L8.74847959,22.2072435 C6.41136853,22.2072435 4.50829238,20.3722334 4.50829238,18.1187123 Z" id="Shape"></path>
                    </g>
                </g>
            </g>
        </g>
    </g>
</svg>