<?xml version="1.0" encoding="UTF-8"?>
<svg width="28px" height="28px" viewBox="0 0 28 28" version="1.1" xmlns="http://www.w3.org/2000/svg" xmlns:xlink="http://www.w3.org/1999/xlink">
    <!-- Generator: Sketch 50 (54983) - http://www.bohemiancoding.com/sketch -->
    <title>telephone</title>
    <desc>Created with Sketch.</desc>
    <defs></defs>
    <g id="Desktop" stroke="none" stroke-width="1" fill="none" fill-rule="evenodd">
        <g id="Homepage" transform="translate(-627.000000, -1867.000000)" fill="#2E7EED" fill-rule="nonzero">
            <g id="block-3" transform="translate(176.000000, 1794.000000)">
                <g id="free-conference-number" transform="translate(363.000000, 73.000000)">
                    <g id="telephone" transform="translate(88.000000, 0.000000)">
                        <path d="M21.866514,18.2648596 C20.926851,17.3371919 19.7537684,17.3371919 18.8200905,18.2648596 C18.1078618,18.971084 17.3956331,19.6773085 16.6953746,20.3955028 C16.5038509,20.5930063 16.3422528,20.634901 16.1088333,20.503232 C15.6479795,20.251864 15.1572,20.0483756 14.7143015,19.7730677 C12.6494368,18.4743329 10.9197385,16.8045311 9.38754905,14.9252558 C8.62743943,13.9916032 7.95112143,12.992116 7.47829733,11.8669449 C7.38253549,11.6395167 7.40049084,11.4898929 7.5860294,11.3043593 C8.2982581,10.6160897 8.99253145,9.90986527 9.69278992,9.20364082 C10.6683637,8.22210854 10.6683637,7.07299757 9.68680481,6.08548034 C9.1301891,5.52289476 8.5735734,4.97227909 8.01695769,4.40969351 C7.44238664,3.83513803 6.87380071,3.25459759 6.29324454,2.68602706 C5.35358147,1.77032926 4.18049891,1.77032926 3.24682095,2.69201201 C2.52860714,3.39823646 1.8403189,4.12241577 1.11013486,4.81667031 C0.433816852,5.45706028 0.0926652907,6.24108911 0.0208439094,7.15678691 C-0.0928732776,8.6470402 0.272218744,10.0535041 0.786938643,11.4240584 C1.8403189,14.2609261 3.44432975,16.7805913 5.38949216,19.0907831 C8.01695769,22.2149285 11.153158,24.6867141 14.8220336,26.4702301 C16.4739253,27.2722138 18.1856683,27.8886639 20.0470391,27.9904081 C21.3278537,28.0622276 22.4410851,27.7390401 23.3328673,26.739553 C23.943349,26.0572683 24.6316372,25.4348332 25.2780297,24.7824734 C26.2356481,23.812911 26.2416332,22.6398602 25.2899999,21.6822677 C24.152828,20.5391417 23.009671,19.4020007 21.866514,18.2648596 Z" id="Shape"></path>
                        <path d="M20.714384,14 L23,13.6012658 C22.6407433,11.4556962 21.6496903,9.51265823 20.1445286,7.96835443 C18.5526497,6.34177215 16.5395733,5.3164557 14.3220922,5 L14,7.34810127 C15.7157605,7.59493671 17.276669,8.38607595 18.5092911,9.64556962 C19.6737784,10.835443 20.4356504,12.3417722 20.714384,14 Z" id="Shape"></path>
                        <path d="M23.490328,4.36324418 C20.9823381,1.97411562 17.8090833,0.465487489 14.3061396,0 L14,2.08067299 C17.0260723,2.48446937 19.7695542,3.79119931 21.9360807,5.84943917 C23.9907485,7.80672994 25.3389403,10.2799827 25.8275862,13 L28,12.6466782 C27.4289319,9.49482312 25.8687973,6.63459879 23.490328,4.36324418 Z" id="Shape"></path>
                    </g>
                </g>
            </g>
        </g>
    </g>
</svg>